<svg width="52" height="42" viewBox="0 0 52 42" fill="none" xmlns="http://www.w3.org/2000/svg">
<path id="&#226;&#128;&#156;" opacity="0.2" d="M22.4 4.48L12.48 23.52L7.52 24.8C8.05333 23.6267 8.69333 22.6667 9.44 21.92C10.2933 21.1733 11.2533 20.8 12.32 20.8C14.56 20.8 16.5867 21.7067 18.4 23.52C20.32 25.3333 21.28 27.68 21.28 30.56C21.28 33.44 20.2133 36 18.08 38.24C16.0533 40.3733 13.6 41.44 10.72 41.44C7.84 41.44 5.33333 40.3733 3.2 38.24C1.06667 36.1067 0 33.5467 0 30.56C0 29.28 0.266667 27.84 0.8 26.24C1.33333 24.5333 2.24 22.4 3.52 19.84L14.24 0L22.4 4.48ZM51.84 4.48L41.92 23.52L36.96 24.8C37.4933 23.6267 38.1333 22.6667 38.88 21.92C39.7333 21.1733 40.6933 20.8 41.76 20.8C44 20.8 46.0267 21.7067 47.84 23.52C49.76 25.3333 50.72 27.68 50.72 30.56C50.72 33.44 49.6533 36 47.52 38.24C45.4933 40.3733 43.04 41.44 40.16 41.44C37.28 41.44 34.7733 40.3733 32.64 38.24C30.5067 36.1067 29.44 33.5467 29.44 30.56C29.44 29.28 29.7067 27.84 30.24 26.24C30.7733 24.5333 31.68 22.4 32.96 19.84L43.68 0L51.84 4.48Z" fill="black"/>
</svg>
