<?xml version="1.0" encoding="UTF-8"?><svg id="Layer_1" xmlns="http://www.w3.org/2000/svg" viewBox="0 0 247.35 266.78"><path d="M247.35,0c-5.33,2.44-108.92,54.15-114.25,56.58-13.5,6.17-27.01,12.34-40.51,18.52-5.92,2.71-11.85,5.42-17.77,8.12-4.19,1.92-9.17,5.33-13.82,4.26-10.73-2.48-21.72-3.67-32.49-5.95-2.86-.51-5.73-.97-8.58-1.53-4.66-.92-7.76,1.8-11.79,3.81H0s6.85,4.41,6.85,4.41c2.3,3.87,3.44,7.83,7.86,9.57,2.7,1.06,5.37,2.23,8.05,3.35,10.29,3.9,20.19,8.84,30.55,12.55,4.49,1.61,6.83,7.17,9.33,11.05,3.52,5.48,7.04,10.96,10.57,16.44,8.03,12.49,16.05,24.98,24.08,37.47,3.17,4.94,53.23,83.2,56.41,88.14l24.89-52.27,42.3-144.17L247.35,0ZM10.69,89.78l1.8,1.02-.05,2.2-1.75-3.22ZM14.41,84.6l-2.2-.05,3.22-1.75-1.02,1.8Z"/></svg>