<?xml version="1.0" encoding="UTF-8"?>
<svg id="Layer_1" data-name="Layer 1" xmlns="http://www.w3.org/2000/svg" viewBox="0 0 1080 1080">
  <path d="M1046.54,619.82c-19.31-7.27-405.39-137.98-424.68-145.28-48.89-18.44-97.81-36.91-146.73-55.33-21.45-8.08-42.93-16.18-64.35-24.28-15.19-5.71-36.06-9.7-44.91-23.98-20.4-32.97-44.68-63.39-65.68-95.96-5.82-8.41-11.78-16.73-17.45-25.24-9.25-13.93-23.74-14.93-38.75-20.02l-20.18-20.35,5.96,28.05c-3.97,15.34-11.04,28.01-4.43,43.37,4.04,9.38,7.74,18.95,11.59,28.43,15.76,35.39,27.96,72.38,44.38,107.47,7.11,15.21-.99,34.85-4.49,50.72-4.97,22.38-9.94,44.77-14.88,67.18-11.31,51.04-22.64,102.05-33.95,153.09-4.49,20.17-75.98,339.32-80.44,359.52l192.35-67.38,465.21-251.72,241.44-108.29ZM235.39,250.9l1.91,7.03-5.62,5.33s3.71-12.36,3.71-12.36ZM257.56,247.36l-5.33-5.62,12.36,3.71-7.03,1.91Z"/>
</svg>