<svg id="Layer_1" data-name="Layer 1" xmlns="http://www.w3.org/2000/svg" viewBox="0 0 600 600">
  <polygon points="295.65 285.28 293 284.65 296.4 288.07 295.65 285.28"></polygon>
  <polygon points="304.2 285.41 303.58 288.06 306.99 284.66 304.2 285.41"></polygon>
  <path d="M381.99,171.99c5.64-14.59,11.28-29.17,16.92-43.76-5.07,5.85-10.14,11.69-15.2,17.54-12.8,14.77-25.59,29.53-38.39,44.3-5.61,6.48-11.23,12.95-16.84,19.43-3.97,4.58-10.13,9.61-10.5,15.87-.85,14.47-3.42,28.79-4.53,43.23-.41,3.8-.9,7.6-1.24,11.41-.56,6.23-5.15,9.13-9.17,13.47l-3.03,10.29-3.03-10.29c-4.03-4.34-8.61-7.24-9.17-13.47-.34-3.81-.83-7.61-1.24-11.41-1.11-14.44-3.68-28.77-4.53-43.23-.37-6.26-6.52-11.29-10.5-15.87-5.61-6.48-11.23-12.96-16.84-19.43-12.8-14.77-25.59-29.53-38.39-44.3l-15.2-17.54c5.64,14.59,11.28,29.17,16.92,43.76,4.07,10.52,10.42,20.01,18.59,27.78l34.98,33.25-44.49-37.53c3.44,8.9,6.89,17.81,10.33,26.71,1.7,4.4,4.55,8.26,8.26,11.18l28.33,22.29-32.23-22.18,8.29,21.44c1.07,2.78,3.02,5.13,5.54,6.71l23.11,14.43-25.8-13.75c2.37,6.11,4.73,12.23,7.09,18.35.89,2.29,2.59,4.17,4.78,5.27l16.37,8.24-18.99-7.91,5.86,15.17c2.46,6.37,11.69,22.28,8.4,28.65-5.76,11.14-11.47,22.3-17.18,33.47-1.02,2,.43,4.38,2.67,4.38.74,0,1.44-.27,1.99-.76,4.97-4.4,9.93-8.79,14.9-13.19,3.59-3.18,7.18-6.36,10.77-9.54,3.86-3.42,5.68-3.68,10.39-3.86,4.71.18,6.53.45,10.39,3.86l10.77,9.54c4.97,4.4,9.93,8.79,14.9,13.19.55.49,1.26.76,1.99.76,2.25,0,3.7-2.37,2.68-4.38-5.71-11.16-11.42-22.33-17.18-33.47-3.29-6.37,5.93-22.28,8.4-28.65,1.95-5.06,3.91-10.11,5.86-15.17l-18.99,7.91,16.37-8.24c2.19-1.1,3.9-2.98,4.78-5.27,2.36-6.12,4.73-12.23,7.09-18.35l-25.81,13.75,23.12-14.43c2.53-1.58,4.47-3.93,5.54-6.71l8.29-21.44-32.23,22.18,28.33-22.29c3.71-2.92,6.56-6.78,8.26-11.18,3.44-8.9,6.88-17.81,10.33-26.71l-44.49,37.53,34.98-33.25c8.18-7.77,14.52-17.26,18.59-27.78" data-index="0" style="opacity: 1;"></path>
  <path d="M255.26,372.8c.16,0,.32.02.47.03l2.38-3.97c.21-.35.58-.56.98-.56.9,0,1.45.98.98,1.75l-2.14,3.5c.78.47,1.42,1.15,1.87,1.95-1.23-.69-2.81-1.1-4.54-1.1s-3.31.42-4.54,1.1c.89-1.6,2.58-2.7,4.54-2.7" data-index="1"></path>
  <path d="M344.42,372.8c-.16,0-.32.02-.47.03l-2.38-3.97c-.21-.35-.58-.56-.98-.56-.89,0-1.44.98-.98,1.75l2.15,3.5c-.78.47-1.42,1.15-1.87,1.95,1.23-.69,2.81-1.1,4.54-1.1s3.31.42,4.54,1.1c-.89-1.6-2.58-2.7-4.54-2.7" data-index="2"></path>
  <g>
    <path d="M182.62,443.55v-23.19c0-2.32-.73-4.18-2.18-5.59-1.45-1.4-3.35-2.11-5.69-2.11-1.45,0-2.92.39-4.39,1.18-1.48.79-2.53,1.68-3.16,2.69v27.02h-8.92v-51.65l8.92-2.11v18.52c2.27-2.06,5.4-3.09,9.38-3.09,4.71,0,8.36,1.3,10.96,3.92,2.6,2.61,3.9,6.35,3.9,11.23v23.19h-8.82Z" data-index="3"></path>
    <path d="M221.86,439.79c-.8,1.31-2.19,2.38-4.16,3.21s-4.05,1.25-6.2,1.25c-4.05,0-7.24-1.01-9.56-3.04-2.32-2.03-3.48-4.9-3.48-8.63,0-4.36,1.64-7.76,4.9-10.22,3.27-2.46,7.91-3.69,13.93-3.69,1.03,0,2.25.17,3.65.53,0-4.43-2.8-6.64-8.4-6.64-3.3,0-6.07.55-8.29,1.65l-1.9-6.81c3.02-1.45,6.62-2.18,10.79-2.18,5.74,0,9.94,1.3,12.61,3.92,2.67,2.61,4.01,7.56,4.01,14.85v8.04c0,5.01,1.01,8.16,3.02,9.45-.73,1.27-1.53,2.04-2.42,2.34-.89.29-1.91.44-3.06.44-1.27,0-2.4-.47-3.41-1.4-1.01-.94-1.69-1.96-2.04-3.06M221.02,425.84c-1.5-.31-2.62-.46-3.37-.46-6.93,0-10.4,2.27-10.4,6.82,0,3.37,1.96,5.06,5.87,5.06,5.27,0,7.9-2.64,7.9-7.9v-3.51Z" data-index="4" style="opacity: 1;"></path>
    <polygon points="276.21 444.25 273.02 444.25 262.69 421.13 252.39 444.25 249.16 444.25 234.97 405.92 244.21 405.92 251.76 428.37 260.96 405.92 264.13 405.92 273.65 428.51 281.8 405.92 290.44 405.92 276.21 444.25"></polygon>
    <polygon points="319.71 443.55 308.64 426.51 304.43 430.97 304.43 443.55 295.64 443.55 295.64 391.9 304.43 389.8 304.43 420.36 316.97 405.92 327.54 405.92 314.82 420.19 330.14 443.55 319.71 443.55"></polygon>
    <path d="M332.75,441.13l3.13-6.99c2.62,2.09,5.59,3.13,8.89,3.13s5.13-1.22,5.13-3.65c0-1.43-.51-2.6-1.55-3.52-1.03-.91-3.03-1.99-6.01-3.23-6.49-2.69-9.73-6.46-9.73-11.31,0-3.25,1.24-5.79,3.72-7.61,2.48-1.82,5.66-2.72,9.52-2.72s7.59.88,11.03,2.63l-2.53,6.82c-1.92-1.64-4.59-2.46-8.01-2.46-3.07,0-4.61,1.22-4.61,3.65,0,.96.5,1.83,1.51,2.6,1.01.77,3.16,1.81,6.47,3.11,3.3,1.3,5.68,2.87,7.13,4.72,1.45,1.85,2.18,4.09,2.18,6.71,0,3.49-1.29,6.24-3.88,8.24-2.59,2-6.11,3-10.56,3-2.51,0-4.52-.21-6.03-.62-1.51-.41-3.45-1.25-5.81-2.51" data-index="5" style="opacity: 1;"></path>
    <path d="M399.64,427.43h-26.88c.16,3,1.19,5.33,3.09,6.99,1.9,1.66,4.45,2.49,7.66,2.49,4,0,7.05-1.04,9.13-3.13l3.41,6.71c-3.09,2.51-7.7,3.76-13.84,3.76-5.74,0-10.28-1.68-13.61-5.04-3.34-3.36-5.01-8.05-5.01-14.07s1.83-10.73,5.5-14.4c3.67-3.68,8.06-5.52,13.19-5.52,5.46,0,9.84,1.63,13.14,4.88,3.3,3.26,4.95,7.4,4.95,12.44,0,1.08-.25,2.71-.74,4.88M373.08,420.82h18.48c-.61-5.5-3.65-8.26-9.14-8.26-5.01,0-8.13,2.75-9.35,8.26" data-index="6" style="opacity: 1;"></path>
    <path d="M440.99,427.43h-26.88c.16,3,1.19,5.33,3.09,6.99,1.9,1.66,4.45,2.49,7.66,2.49,4,0,7.05-1.04,9.13-3.13l3.41,6.71c-3.09,2.51-7.7,3.76-13.84,3.76-5.74,0-10.28-1.68-13.61-5.04-3.34-3.36-5.01-8.05-5.01-14.07s1.83-10.73,5.5-14.4c3.67-3.68,8.06-5.52,13.19-5.52,5.46,0,9.84,1.63,13.14,4.88,3.3,3.26,4.95,7.4,4.95,12.44,0,1.08-.25,2.71-.74,4.88M414.43,420.82h18.48c-.61-5.5-3.65-8.26-9.14-8.26-5.01,0-8.13,2.75-9.35,8.26" data-index="7" style="opacity: 1;"></path>
  </g>
  <g>
    <path d="M184.67,467.08l.57-1.43c.29.21.65.39,1.08.53.43.14.82.21,1.16.21.61,0,1.09-.17,1.46-.5.37-.33.55-.75.55-1.27,0-.38-.1-.74-.31-1.07-.2-.33-.72-.69-1.54-1.08l-.92-.43c-.78-.36-1.32-.79-1.63-1.29s-.46-1.1-.46-1.79c0-.85.3-1.55.9-2.11.6-.56,1.37-.84,2.31-.84,1.26,0,2.13.21,2.63.61l-.46,1.35c-.21-.15-.52-.3-.95-.44-.42-.14-.82-.21-1.18-.21-.53,0-.94.15-1.25.45-.3.3-.45.69-.45,1.16,0,.29.05.55.16.79s.26.44.45.6c.19.16.59.39,1.19.68l.93.44c.78.37,1.32.81,1.63,1.32.31.51.47,1.16.47,1.95,0,.85-.34,1.58-1.03,2.17-.69.6-1.6.89-2.75.89-1.01,0-1.87-.24-2.59-.71Z" data-index="8"></path>
    <path d="M192.17,463.42c0-1.28.35-2.32,1.04-3.11.69-.79,1.6-1.18,2.73-1.18,1.19,0,2.12.38,2.77,1.14.66.76.99,1.81.99,3.16s-.34,2.4-1.01,3.17c-.67.77-1.59,1.16-2.75,1.16s-2.11-.39-2.77-1.17c-.66-.78-.99-1.84-.99-3.16ZM193.72,463.42c0,2.09.74,3.13,2.21,3.13.69,0,1.23-.28,1.62-.84.39-.56.59-1.32.59-2.29,0-2.06-.74-3.09-2.21-3.09-.67,0-1.21.27-1.61.82s-.6,1.3-.6,2.27Z" data-index="9"></path>
    <path d="M207.52,459.96l-.73,1.04c-.15-.15-.42-.29-.8-.43-.38-.13-.75-.2-1.12-.2-.8,0-1.44.28-1.91.84-.47.56-.71,1.33-.71,2.31s.24,1.72.72,2.23c.48.51,1.15.77,2,.77.66,0,1.33-.26,2-.77l.58,1.24c-.79.51-1.77.77-2.94.77s-2.07-.38-2.81-1.14c-.74-.76-1.11-1.79-1.11-3.09s.38-2.39,1.15-3.19,1.82-1.2,3.16-1.2c.43,0,.9.09,1.4.27.5.18.87.37,1.11.56Z" data-index="10"></path>
    <path d="M209.84,467.6v-7.08h-1.14v-1.24h2.62v8.32h-1.48ZM210.65,456.14c.25,0,.47.09.65.27.18.18.27.39.27.64s-.09.47-.27.65c-.18.18-.39.27-.65.27s-.46-.09-.64-.27-.27-.39-.27-.65.09-.47.26-.64c.18-.18.39-.26.64-.26Z" data-index="11"></path>
    <path d="M218.36,466.64c-.59.74-1.49,1.11-2.71,1.11-.65,0-1.22-.24-1.7-.71s-.72-1.06-.72-1.77c0-.84.37-1.56,1.11-2.14.74-.58,1.68-.87,2.82-.87.31,0,.66.07,1.06.2,0-1.35-.6-2.02-1.8-2.02-.92,0-1.63.25-2.13.75l-.62-1.23c.28-.23.67-.42,1.16-.59.49-.16.97-.24,1.42-.24,1.21,0,2.08.27,2.63.82s.82,1.42.82,2.62v2.98c0,.73.22,1.22.65,1.46v.74c-.6,0-1.05-.08-1.35-.26s-.51-.45-.64-.85ZM218.22,463.51c-.47-.1-.79-.16-.98-.16-.75,0-1.35.19-1.83.58s-.71.84-.71,1.36c0,.86.51,1.3,1.53,1.3.75,0,1.41-.35,1.98-1.06v-2.01Z" data-index="12"></path>
    <path d="M222.13,465.25v-9.38h1.48v9.13c0,.45.13.8.38,1.05.26.26.59.38,1.01.38v1.32c-1.91,0-2.87-.84-2.87-2.51Z" data-index="13"></path>
    <path d="M240.18,467.6l-1.35-7.31-2.49,7.46h-.39l-2.56-7.46-1.32,7.31h-1.48l2.13-11.38h.71l2.71,8.3,2.5-8.3h.7l2.31,11.38h-1.48Z" data-index="14"></path>
    <path d="M249.79,463.58h-6c0,.97.27,1.72.8,2.25.47.46,1.08.68,1.82.68.84,0,1.55-.25,2.11-.74l.62,1.06c-.23.23-.58.42-1.05.59-.59.22-1.25.33-1.97.33-1.05,0-1.93-.35-2.66-1.06-.81-.78-1.22-1.83-1.22-3.15s.42-2.47,1.25-3.3c.75-.74,1.63-1.11,2.65-1.11,1.19,0,2.12.33,2.79,1,.65.64.98,1.49.98,2.55,0,.33-.04.63-.12.9ZM246.21,460.37c-.66,0-1.21.21-1.65.64-.42.4-.67.91-.72,1.51h4.61c0-.59-.19-1.09-.56-1.49-.41-.43-.97-.65-1.67-.65Z" data-index="15"></path>
    <path d="M256.74,467.59v-.61c-.51.51-1.26.77-2.24.77-1.04,0-1.88-.37-2.53-1.12-.65-.75-.97-1.74-.97-2.98s.37-2.31,1.12-3.2,1.63-1.32,2.66-1.32c.86,0,1.51.2,1.96.61v-3.86h1.48v11.72h-1.48ZM256.74,461.21c-.37-.56-.88-.84-1.53-.84-.79,0-1.43.3-1.92.89-.49.59-.73,1.34-.73,2.25,0,2,.91,3.01,2.73,3.01.23,0,.51-.07.84-.22.33-.15.53-.3.61-.47v-4.61Z" data-index="16"></path>
    <path d="M261.04,467.6v-7.08h-1.14v-1.24h2.62v8.32h-1.48ZM261.85,456.14c.25,0,.47.09.65.27.18.18.27.39.27.64s-.09.47-.27.65c-.18.18-.39.27-.65.27s-.46-.09-.64-.27-.27-.39-.27-.65.09-.47.26-.64c.18-.18.39-.26.64-.26Z" data-index="17"></path>
    <path d="M269.56,466.64c-.59.74-1.49,1.11-2.71,1.11-.65,0-1.22-.24-1.7-.71s-.72-1.06-.72-1.77c0-.84.37-1.56,1.11-2.14.74-.58,1.68-.87,2.82-.87.31,0,.66.07,1.06.2,0-1.35-.6-2.02-1.8-2.02-.92,0-1.63.25-2.13.75l-.62-1.23c.28-.23.67-.42,1.16-.59.49-.16.97-.24,1.42-.24,1.21,0,2.08.27,2.63.82s.82,1.42.82,2.62v2.98c0,.73.22,1.22.65,1.46v.74c-.6,0-1.05-.08-1.35-.26s-.51-.45-.64-.85ZM269.42,463.51c-.47-.1-.79-.16-.98-.16-.75,0-1.35.19-1.83.58s-.71.84-.71,1.36c0,.86.51,1.3,1.53,1.3.75,0,1.41-.35,1.98-1.06v-2.01Z" data-index="18"></path>
    <path d="M286.69,467.6l-1.35-7.31-2.49,7.46h-.39l-2.56-7.46-1.32,7.31h-1.48l2.13-11.38h.71l2.71,8.3,2.5-8.3h.7l2.31,11.38h-1.48Z" data-index="19"></path>
    <path d="M293.99,466.64c-.59.74-1.49,1.11-2.71,1.11-.65,0-1.22-.24-1.7-.71s-.72-1.06-.72-1.77c0-.84.37-1.56,1.11-2.14.74-.58,1.68-.87,2.82-.87.31,0,.66.07,1.06.2,0-1.35-.6-2.02-1.8-2.02-.92,0-1.63.25-2.13.75l-.62-1.23c.28-.23.67-.42,1.16-.59.49-.16.97-.24,1.42-.24,1.21,0,2.08.27,2.63.82s.82,1.42.82,2.62v2.98c0,.73.22,1.22.65,1.46v.74c-.6,0-1.05-.08-1.35-.26s-.51-.45-.64-.85ZM293.85,463.51c-.47-.1-.79-.16-.98-.16-.75,0-1.35.19-1.83.58s-.71.84-.71,1.36c0,.86.51,1.3,1.53,1.3.75,0,1.41-.35,1.98-1.06v-2.01Z" data-index="20"></path>
    <path d="M302.17,460.7c-.32-.22-.65-.33-.97-.33-.52,0-.98.24-1.37.72-.39.48-.59,1.06-.59,1.74v4.77h-1.48v-8.32h1.48v1.33c.54-.99,1.34-1.48,2.4-1.48.26,0,.64.05,1.14.14l-.61,1.44Z" data-index="21"></path>
    <path d="M309.21,467.6l-2.61-4.16-1.29,1.33v2.83h-1.48v-11.73h1.48v7.28l3.18-3.87h1.72l-2.66,3.16,3.25,5.16h-1.6Z" data-index="22"></path>
    <path d="M318.87,463.58h-6c0,.97.27,1.72.8,2.25.47.46,1.08.68,1.82.68.84,0,1.55-.25,2.11-.74l.62,1.06c-.23.23-.58.42-1.05.59-.59.22-1.25.33-1.97.33-1.05,0-1.93-.35-2.66-1.06-.81-.78-1.22-1.83-1.22-3.15s.42-2.47,1.25-3.3c.75-.74,1.63-1.11,2.65-1.11,1.19,0,2.12.33,2.79,1,.65.64.98,1.49.98,2.55,0,.33-.04.63-.12.9ZM315.28,460.37c-.66,0-1.21.21-1.65.64-.42.4-.67.91-.72,1.51h4.61c0-.59-.19-1.09-.56-1.49-.41-.43-.97-.65-1.67-.65Z" data-index="23"></path>
    <path d="M321.06,460.45h-.96v-1.17h.96v-1.74l1.48-.57v2.31h2.28v1.17h-2.28v4.13c0,.7.12,1.2.35,1.49.24.29.61.44,1.14.44.38,0,.77-.1,1.17-.29l.22,1.3c-.61.16-1.28.23-2.01.23-.66,0-1.21-.24-1.67-.73-.45-.49-.68-1.11-.68-1.85v-4.72Z" data-index="24"></path>
    <path d="M327.56,467.6v-7.08h-1.14v-1.24h2.62v8.32h-1.48ZM328.36,456.14c.25,0,.47.09.65.27s.27.39.27.64-.09.47-.27.65-.4.27-.65.27-.46-.09-.64-.27c-.18-.18-.27-.39-.27-.65s.09-.47.26-.64c.18-.18.39-.26.65-.26Z" data-index="25"></path>
    <path d="M336.5,467.6v-4.84c0-.89-.13-1.51-.4-1.86s-.71-.53-1.34-.53c-.34,0-.69.1-1.06.3-.37.2-.65.45-.85.75v6.18h-1.48v-8.32h1.01l.47,1.07c.49-.82,1.28-1.23,2.38-1.23,1.82,0,2.73,1.11,2.73,3.32v5.15h-1.48Z" data-index="26"></path>
    <path d="M339.77,469.88l.8-1.18c.86.58,1.65.86,2.38.86.67,0,1.2-.12,1.58-.35s.58-.52.58-.86c0-.67-.49-1.01-1.46-1.01-.17,0-.47.04-.9.12-.44.08-.77.12-1.02.12-1.18,0-1.77-.45-1.77-1.34,0-.27.14-.52.42-.75s.62-.38,1.03-.48c-1.17-.55-1.76-1.5-1.76-2.86,0-.87.3-1.6.91-2.17.61-.58,1.35-.87,2.24-.87.82,0,1.46.17,1.92.5l.74-.89.96.91-.89.67c.38.49.57,1.13.57,1.93,0,.84-.26,1.54-.79,2.11-.52.57-1.21.9-2.06.98l-1.22.12c-.15.02-.34.07-.58.17-.24.1-.36.22-.36.38,0,.21.25.32.76.32.22,0,.57-.04,1.04-.12.47-.08.82-.12,1.05-.12.82,0,1.46.2,1.91.59.46.39.69.93.69,1.63,0,.77-.34,1.38-1.03,1.86-.69.47-1.55.71-2.61.71-.54,0-1.11-.1-1.7-.29s-1.07-.42-1.44-.7ZM342.9,460.31c-.51,0-.93.18-1.25.54-.32.36-.49.8-.49,1.32,0,.58.16,1.06.47,1.44.31.38.74.57,1.27.57s.93-.18,1.23-.55c.3-.37.44-.86.44-1.46,0-.52-.16-.96-.48-1.32-.32-.36-.72-.54-1.19-.54Z" data-index="27"></path>
    <path d="M352.45,467.08l.57-1.43c.29.21.65.39,1.08.53.43.14.82.21,1.16.21.61,0,1.09-.17,1.46-.5.37-.33.55-.75.55-1.27,0-.38-.1-.74-.31-1.07-.21-.33-.72-.69-1.54-1.08l-.92-.43c-.78-.36-1.32-.79-1.63-1.29-.31-.5-.46-1.1-.46-1.79,0-.85.3-1.55.9-2.11.6-.56,1.37-.84,2.31-.84,1.26,0,2.13.21,2.62.61l-.46,1.35c-.21-.15-.52-.3-.95-.44-.42-.14-.82-.21-1.18-.21-.53,0-.94.15-1.25.45-.3.3-.45.69-.45,1.16,0,.29.05.55.16.79s.26.44.45.6c.19.16.59.39,1.19.68l.93.44c.78.37,1.32.81,1.63,1.32.31.51.47,1.16.47,1.95,0,.85-.34,1.58-1.03,2.17-.69.6-1.6.89-2.75.89-1.01,0-1.87-.24-2.59-.71Z" data-index="28"></path>
    <path d="M359.95,463.42c0-1.28.35-2.32,1.04-3.11.69-.79,1.6-1.18,2.73-1.18,1.19,0,2.12.38,2.77,1.14.66.76.99,1.81.99,3.16s-.34,2.4-1.01,3.17-1.59,1.16-2.75,1.16-2.11-.39-2.77-1.17c-.66-.78-.99-1.84-.99-3.16ZM361.51,463.42c0,2.09.74,3.13,2.21,3.13.69,0,1.23-.28,1.62-.84.39-.56.59-1.32.59-2.29,0-2.06-.74-3.09-2.21-3.09-.67,0-1.21.27-1.61.82s-.6,1.3-.6,2.27Z" data-index="29"></path>
    <path d="M369.15,465.25v-9.38h1.48v9.13c0,.45.13.8.38,1.05.26.26.59.38,1.01.38v1.32c-1.91,0-2.87-.84-2.87-2.51Z" data-index="30"></path>
    <path d="M375.12,459.28v5.3c0,1.28.56,1.93,1.67,1.93.49,0,.93-.14,1.34-.42.4-.28.67-.6.8-.97v-5.84h1.48v8.32h-1.48v-1.15c-.17.33-.5.62-1,.9-.5.27-.99.41-1.46.41-.91,0-1.61-.26-2.09-.78-.48-.52-.73-1.27-.73-2.23v-5.46h1.48Z" data-index="31"></path>
    <path d="M382.94,460.45h-.96v-1.17h.96v-1.74l1.48-.57v2.31h2.28v1.17h-2.28v4.13c0,.7.12,1.2.35,1.49.24.29.61.44,1.14.44.38,0,.77-.1,1.17-.29l.22,1.3c-.61.16-1.28.23-2.01.23-.66,0-1.21-.24-1.67-.73-.45-.49-.68-1.11-.68-1.85v-4.72Z" data-index="32"></path>
    <path d="M389.44,467.6v-7.08h-1.14v-1.24h2.62v8.32h-1.48ZM390.24,456.14c.25,0,.47.09.65.27s.27.39.27.64-.09.47-.27.65-.4.27-.65.27-.46-.09-.64-.27c-.18-.18-.27-.39-.27-.65s.09-.47.26-.64c.18-.18.39-.26.65-.26Z" data-index="33"></path>
    <path d="M392.71,463.42c0-1.28.35-2.32,1.04-3.11.69-.79,1.6-1.18,2.73-1.18,1.19,0,2.12.38,2.77,1.14.66.76.99,1.81.99,3.16s-.34,2.4-1.01,3.17-1.59,1.16-2.75,1.16-2.11-.39-2.77-1.17c-.66-.78-.99-1.84-.99-3.16ZM394.27,463.42c0,2.09.74,3.13,2.21,3.13.69,0,1.23-.28,1.62-.84.39-.56.59-1.32.59-2.29,0-2.06-.74-3.09-2.21-3.09-.67,0-1.21.27-1.61.82s-.6,1.3-.6,2.27Z" data-index="34"></path>
    <path d="M406.91,467.6v-4.84c0-.89-.13-1.51-.4-1.86s-.71-.53-1.34-.53c-.34,0-.69.1-1.06.3-.37.2-.65.45-.85.75v6.18h-1.48v-8.32h1.01l.47,1.07c.49-.82,1.28-1.23,2.38-1.23,1.82,0,2.73,1.11,2.73,3.32v5.15h-1.48Z" data-index="35"></path>
    <path d="M409.94,467.1l.52-1.4c.82.54,1.49.81,1.99.81.91,0,1.37-.38,1.37-1.15,0-.55-.44-1.02-1.32-1.41-.68-.31-1.14-.55-1.37-.71-.24-.16-.44-.34-.61-.55-.17-.2-.3-.42-.39-.65-.09-.23-.13-.48-.13-.74,0-.68.25-1.22.75-1.6.5-.38,1.15-.57,1.95-.57.61,0,1.37.19,2.29.57l-.42,1.37c-.58-.47-1.17-.7-1.76-.7-.35,0-.65.08-.89.25-.24.17-.36.38-.36.63,0,.53.3.94.91,1.21l1.06.48c.65.29,1.12.63,1.41,1.01s.44.85.44,1.42c0,.75-.26,1.33-.78,1.75-.52.42-1.25.63-2.17.63-.88,0-1.7-.22-2.47-.65Z" data-index="36"></path>
  </g>
</svg>