<svg width="183" height="222" viewBox="0 0 183 222" fill="none" xmlns="http://www.w3.org/2000/svg">
<path d="M29.5809 215.604C29.5809 216.149 29.6329 216.602 29.7356 216.962C29.8396 217.322 29.9889 217.584 30.1809 217.749C30.3756 217.914 30.5649 218.026 30.7542 218.086C30.9422 218.146 31.1649 218.177 31.4236 218.177C32.5089 218.177 33.0502 217.825 33.0462 217.124V213.508C32.5662 213.309 32.0622 213.21 31.5342 213.21C31.2542 213.21 31.0076 213.24 30.7996 213.294C30.5902 213.349 30.3862 213.454 30.1889 213.61C29.9916 213.765 29.8396 214.01 29.7356 214.342C29.6329 214.674 29.5809 215.096 29.5809 215.604ZM28.2876 215.604C28.2876 214.904 28.3849 214.308 28.5782 213.816C28.7729 213.325 29.0369 212.958 29.3716 212.713C29.7062 212.468 30.0489 212.298 30.3982 212.197C30.7502 212.098 31.1276 212.049 31.5342 212.049C32.0449 212.049 32.5489 212.12 33.0462 212.258V209.484H34.3382V217.052C34.3382 217.204 34.3236 217.354 34.2929 217.505C34.2636 217.654 34.1929 217.846 34.0796 218.081C33.9662 218.316 33.8142 218.521 33.6196 218.696C33.4276 218.87 33.1396 219.021 32.7569 219.148C32.3756 219.274 31.9302 219.338 31.4236 219.338C31.1516 219.338 30.8889 219.314 30.6382 219.269C30.3862 219.222 30.1116 219.12 29.8142 218.958C29.5169 218.797 29.2622 218.586 29.0502 218.329C28.8369 218.07 28.6582 217.706 28.5089 217.24C28.3622 216.772 28.2876 216.226 28.2876 215.604Z" fill="black"/>
<path d="M37.5725 212.16H38.8672V219.228H37.5725V212.16ZM37.5325 209.698H38.9072V211.066H37.5325V209.698Z" fill="black"/>
<path d="M43.1525 215.645C43.1525 216.561 43.3165 217.173 43.6445 217.473C43.9725 217.776 44.4259 217.927 45.0032 217.927C45.5125 217.927 45.9872 217.837 46.4312 217.657V214.185C46.4312 214.08 46.4205 213.991 46.4032 213.916C46.3845 213.843 46.3325 213.739 46.2472 213.605C46.1619 213.471 46.0032 213.371 45.7725 213.3C45.5419 213.231 45.2445 213.197 44.8859 213.197C44.6499 213.197 44.4445 213.225 44.2685 213.281C44.0925 213.336 43.9125 213.443 43.7285 213.599C43.5432 213.755 43.4019 214.005 43.3019 214.348C43.2019 214.692 43.1525 215.124 43.1525 215.645ZM41.8592 215.637C41.8592 214.543 42.1072 213.669 42.6019 213.015C43.0979 212.363 43.8579 212.036 44.8859 212.036C45.7432 212.036 46.4312 212.228 46.9485 212.617C47.4645 213.004 47.7245 213.555 47.7245 214.269V219.524C47.7245 219.839 47.6792 220.128 47.5885 220.396C47.4992 220.664 47.3472 220.925 47.1352 221.18C46.9232 221.437 46.6032 221.637 46.1765 221.783C45.7485 221.928 45.2299 222 44.6152 222C43.9045 222 43.2072 221.9 42.5192 221.703V220.472C43.1872 220.671 43.8485 220.769 44.5045 220.769C44.9579 220.769 45.3259 220.729 45.6099 220.648C45.8939 220.567 46.0899 220.452 46.1979 220.303C46.3072 220.153 46.3725 220.027 46.3965 219.923C46.4192 219.82 46.4312 219.683 46.4312 219.512V218.891C45.9512 219.023 45.4739 219.089 45.0032 219.089C43.9952 219.089 43.2192 218.792 42.6752 218.199C42.1312 217.605 41.8592 216.752 41.8592 215.637Z" fill="black"/>
<path d="M50.9445 212.16H52.2392V219.228H50.9445V212.16ZM50.9032 209.698H52.2778V211.066H50.9032V209.698Z" fill="black"/>
<path d="M54.9612 213.266V212.16H56.1931V210.065H57.4865V212.16H59.3665V213.266H57.4865V217.35C57.4865 217.901 57.8331 218.177 58.5305 218.177H58.5438C58.8665 218.177 59.1412 218.108 59.3665 217.969V219.141C59.0438 219.273 58.7198 219.338 58.3985 219.338H58.3638C58.1932 219.338 58.0105 219.317 57.8185 219.276C57.6238 219.234 57.3918 219.153 57.1225 219.03C56.8532 218.908 56.6305 218.697 56.4545 218.396C56.2798 218.094 56.1931 217.721 56.1931 217.274V213.266H54.9612Z" fill="black"/>
<path d="M63.1069 216.98C63.1069 217.777 63.6722 218.176 64.8042 218.176H64.8242C65.8922 218.176 66.4256 217.793 66.4256 217.028V215.887C66.0856 215.832 65.6762 215.801 65.1976 215.797C65.0096 215.797 64.8109 215.815 64.6042 215.848C64.3976 215.884 64.1749 215.937 63.9349 216.009C63.6949 216.084 63.4976 216.205 63.3416 216.375C63.1856 216.544 63.1069 216.745 63.1069 216.98ZM61.8136 216.993C61.8136 216.295 62.1082 215.749 62.6989 215.356C63.2909 214.963 64.1042 214.767 65.1416 214.767C65.5829 214.767 66.0122 214.795 66.4256 214.849C66.3989 214.255 66.2362 213.829 65.9389 213.571C65.6416 213.312 65.1562 213.183 64.4802 213.183C63.8669 213.183 63.2136 213.3 62.5229 213.536V212.429C63.1909 212.176 63.9042 212.049 64.6589 212.049C65.6442 212.049 66.4056 212.304 66.9416 212.813C67.4776 213.323 67.7456 214.055 67.7456 215.008V217.049C67.7456 217.201 67.7322 217.352 67.7016 217.503C67.6722 217.652 67.5989 217.844 67.4856 218.079C67.3722 218.315 67.2189 218.519 67.0242 218.695C66.8309 218.869 66.5389 219.02 66.1496 219.148C65.7616 219.275 65.3122 219.339 64.8042 219.339C64.2829 219.339 63.8256 219.272 63.4336 219.14C63.0416 219.008 62.7456 218.855 62.5469 218.679C62.3496 218.504 62.1909 218.295 62.0736 218.055C61.9562 217.815 61.8829 217.616 61.8562 217.457C61.8269 217.301 61.8136 217.147 61.8136 216.993Z" fill="black"/>
<path d="M70.8152 209.469H72.1085V219.226H70.8152V209.469Z" fill="black"/>
<path d="M81.9325 219.227V212.741C82.8765 212.27 83.8539 212.035 84.8672 212.035C85.6339 212.035 86.2632 212.213 86.7565 212.569C87.6459 212.213 88.5112 212.035 89.3485 212.035C90.2419 212.035 90.9379 212.267 91.4379 212.734C91.9379 213.199 92.1872 213.85 92.1872 214.685V219.227H90.8952V214.594C90.8952 214.189 90.7939 213.862 90.5965 213.611C90.3979 213.363 90.0099 213.239 89.4325 213.239C88.8085 213.239 88.1765 213.37 87.5339 213.633C87.6445 213.933 87.6992 214.269 87.6992 214.643V219.227H86.4059V214.607C86.4059 214.194 86.2965 213.866 86.0765 213.626C85.8579 213.386 85.4219 213.266 84.7712 213.266C84.2672 213.266 83.7525 213.338 83.2259 213.481V219.227H81.9325Z" fill="black"/>
<path d="M96.2677 216.98C96.2677 217.777 96.8331 218.176 97.9651 218.176H97.9851C99.0531 218.176 99.5864 217.793 99.5864 217.028V215.887C99.2464 215.832 98.8371 215.801 98.3584 215.797C98.1704 215.797 97.9717 215.815 97.7651 215.848C97.5584 215.884 97.3357 215.937 97.0957 216.009C96.8557 216.084 96.6584 216.205 96.5024 216.375C96.3464 216.544 96.2677 216.745 96.2677 216.98ZM94.9744 216.993C94.9744 216.295 95.2691 215.749 95.8597 215.356C96.4517 214.963 97.2651 214.767 98.3024 214.767C98.7437 214.767 99.1731 214.795 99.5864 214.849C99.5597 214.255 99.3971 213.829 99.0997 213.571C98.8024 213.312 98.3171 213.183 97.6411 213.183C97.0277 213.183 96.3744 213.3 95.6837 213.536V212.429C96.3517 212.176 97.0651 212.049 97.8197 212.049C98.8051 212.049 99.5664 212.304 100.102 212.813C100.638 213.323 100.906 214.055 100.906 215.008V217.049C100.906 217.201 100.893 217.352 100.862 217.503C100.833 217.652 100.76 217.844 100.646 218.079C100.533 218.315 100.38 218.519 100.185 218.695C99.9917 218.869 99.6997 219.02 99.3104 219.148C98.9224 219.275 98.4731 219.339 97.9651 219.339C97.4437 219.339 96.9864 219.272 96.5944 219.14C96.2024 219.008 95.9064 218.855 95.7077 218.679C95.5104 218.504 95.3517 218.295 95.2344 218.055C95.1171 217.815 95.0437 217.616 95.0171 217.457C94.9877 217.301 94.9744 217.147 94.9744 216.993Z" fill="black"/>
<path d="M103.846 219.227V212.755C105.026 212.285 106.173 212.049 107.289 212.049V213.239C106.586 213.249 105.87 213.347 105.139 213.535V219.227H103.846Z" fill="black"/>
<path d="M109.915 219.227V209.47H111.21V215.119L114.266 212.159H116.022L112.951 215.106L116.43 219.227H114.708L112.087 215.942L111.21 216.793V219.227H109.915Z" fill="black"/>
<path d="M119.601 215.265H123.233C123.213 215.029 123.173 214.805 123.112 214.59C123.049 214.376 122.954 214.158 122.828 213.937C122.701 213.716 122.518 213.54 122.278 213.408C122.038 213.277 121.752 213.21 121.42 213.21C120.825 213.21 120.389 213.364 120.11 213.672C119.832 213.977 119.661 214.509 119.601 215.265ZM118.301 215.777C118.301 213.293 119.341 212.049 121.42 212.049H121.434C122.38 212.049 123.133 212.357 123.698 212.974C124.264 213.593 124.546 214.42 124.546 215.457C124.546 215.793 124.532 216.117 124.505 216.426H119.622C119.78 217.638 120.444 218.245 121.614 218.245C122.569 218.245 123.382 218.069 124.056 217.713V218.892C123.326 219.198 122.504 219.35 121.586 219.35H121.545C121.129 219.35 120.746 219.298 120.397 219.196C120.046 219.092 119.705 218.92 119.374 218.68C119.042 218.44 118.781 218.07 118.589 217.574C118.398 217.078 118.301 216.478 118.301 215.777Z" fill="black"/>
<path d="M126.481 213.266V212.16H127.713V210.065H129.007V212.16H130.887V213.266H129.007V217.35C129.007 217.901 129.353 218.177 130.051 218.177H130.064C130.387 218.177 130.661 218.108 130.887 217.969V219.141C130.564 219.273 130.24 219.338 129.919 219.338H129.884C129.713 219.338 129.531 219.317 129.339 219.276C129.144 219.234 128.912 219.153 128.643 219.03C128.373 218.908 128.151 218.697 127.975 218.396C127.8 218.094 127.713 217.721 127.713 217.274V213.266H126.481Z" fill="black"/>
<path d="M133.767 212.16H135.062V219.228H133.767V212.16ZM133.727 209.698H135.102V211.066H133.727V209.698Z" fill="black"/>
<path d="M138.503 219.227V212.759C139.483 212.277 140.487 212.035 141.515 212.035C142.411 212.035 143.111 212.267 143.619 212.734C144.127 213.199 144.381 213.845 144.381 214.67V219.227H143.061V214.57C143.061 214.153 142.954 213.825 142.742 213.586C142.53 213.345 142.102 213.225 141.461 213.225C140.882 213.225 140.327 213.311 139.797 213.481V219.227H138.503Z" fill="black"/>
<path d="M148.661 215.645C148.661 216.561 148.825 217.173 149.153 217.473C149.481 217.776 149.934 217.927 150.512 217.927C151.021 217.927 151.496 217.837 151.94 217.657V214.185C151.94 214.08 151.929 213.991 151.912 213.916C151.893 213.843 151.841 213.739 151.756 213.605C151.67 213.471 151.512 213.371 151.281 213.3C151.05 213.231 150.753 213.197 150.394 213.197C150.158 213.197 149.953 213.225 149.777 213.281C149.601 213.336 149.421 213.443 149.237 213.599C149.052 213.755 148.91 214.005 148.81 214.348C148.71 214.692 148.661 215.124 148.661 215.645ZM147.368 215.637C147.368 214.543 147.616 213.669 148.11 213.015C148.606 212.363 149.366 212.036 150.394 212.036C151.252 212.036 151.94 212.228 152.457 212.617C152.973 213.004 153.233 213.555 153.233 214.269V219.524C153.233 219.839 153.188 220.128 153.097 220.396C153.008 220.664 152.856 220.925 152.644 221.18C152.432 221.437 152.112 221.637 151.685 221.783C151.257 221.928 150.738 222 150.124 222C149.413 222 148.716 221.9 148.028 221.703V220.472C148.696 220.671 149.357 220.769 150.013 220.769C150.466 220.769 150.834 220.729 151.118 220.648C151.402 220.567 151.598 220.452 151.706 220.303C151.816 220.153 151.881 220.027 151.905 219.923C151.928 219.82 151.94 219.683 151.94 219.512V218.891C151.46 219.023 150.982 219.089 150.512 219.089C149.504 219.089 148.728 218.792 148.184 218.199C147.64 217.605 147.368 216.752 147.368 215.637Z" fill="black"/>
<path d="M88.6297 101.671L86.9243 101.27L89.1124 103.467L88.6297 101.671Z" fill="black"/>
<path d="M94.1258 101.759L93.7245 103.463L95.9218 101.275L94.1258 101.759Z" fill="black"/>
<path d="M144.143 28.8251C147.769 19.4451 151.395 10.0664 155.021 0.686401C151.764 4.44507 148.504 8.20508 145.245 11.9637C137.016 21.4597 128.787 30.9544 120.56 40.4491C116.948 44.6131 113.339 48.7784 109.728 52.9437C107.173 55.8917 103.215 59.1251 102.979 63.1491C102.436 72.4517 100.781 81.6624 100.068 90.9504C99.8014 93.3931 99.4894 95.8357 99.2681 98.2837C98.9067 102.29 95.9574 104.154 93.3694 106.948L91.4227 113.564L89.4774 106.948C86.8881 104.154 83.9387 102.29 83.5787 98.2837C83.3574 95.8357 83.0454 93.3931 82.7787 90.9504C82.0641 81.6624 80.4107 72.4517 79.8667 63.1491C79.6321 59.1251 75.6721 55.8917 73.1174 52.9437C69.5067 48.7784 65.8974 44.6131 62.2881 40.4491L37.6001 11.9637C34.3414 8.20508 31.0827 4.44507 27.8241 0.686401C31.4507 10.0664 35.0774 19.4451 38.7027 28.8251C41.3187 35.5891 45.4014 41.6891 50.6587 46.6864L73.1547 68.0691L44.5454 43.9344C46.7587 49.6611 48.9721 55.3864 51.1854 61.1117C52.2801 63.9411 54.1147 66.4237 56.5001 68.2997L74.7161 82.6331L53.9921 68.3704L59.3227 82.1584C60.0134 83.9437 61.2641 85.4584 62.8881 86.4704L77.7521 95.7491L61.1574 86.9064C62.6787 90.8397 64.1987 94.7717 65.7187 98.7037C66.2881 100.177 67.3841 101.385 68.7947 102.094L79.3241 107.393L67.1121 102.306C68.3681 105.557 69.6254 108.806 70.8814 112.058C72.4654 116.154 78.4001 126.384 76.2814 130.48C72.5774 137.642 68.9054 144.821 65.2321 152.001C64.5747 153.286 65.5081 154.813 66.9521 154.813C67.4241 154.813 67.8801 154.64 68.2334 154.328C71.4267 151.501 74.6201 148.674 77.8147 145.846C80.1241 143.801 82.4334 141.757 84.7414 139.713C87.2227 137.517 88.3921 137.345 91.4227 137.229C94.4534 137.345 95.6227 137.517 98.1041 139.713C100.413 141.757 102.723 143.801 105.032 145.846C108.227 148.674 111.419 151.501 114.613 154.328C114.967 154.64 115.421 154.813 115.893 154.813C117.337 154.813 118.272 153.286 117.615 152.001C113.941 144.821 110.269 137.642 106.564 130.48C104.447 126.384 110.381 116.154 111.964 112.058C113.221 108.806 114.477 105.557 115.735 102.306L103.523 107.393L114.052 102.094C115.461 101.385 116.559 100.177 117.127 98.7037C118.648 94.7717 120.168 90.8397 121.688 86.9064L105.095 95.7491L119.959 86.4704C121.583 85.4584 122.833 83.9437 123.524 82.1584L128.853 68.3704L108.131 82.6331L126.347 68.2997C128.731 66.4251 130.565 63.9424 131.661 61.1131C133.875 55.3864 136.088 49.6611 138.301 43.9344L109.691 68.0691L132.187 46.6864C137.445 41.6904 141.528 35.5891 144.143 28.8251Z" fill="black"/>
<path d="M62.6584 157.951C62.7624 157.951 62.8624 157.963 62.9637 157.973L64.4957 155.419C64.629 155.197 64.869 155.061 65.1277 155.061C65.7037 155.061 66.057 155.691 65.7557 156.183L64.377 158.433C64.877 158.738 65.2917 159.171 65.577 159.687C64.7877 159.245 63.7704 158.978 62.6584 158.978C61.5464 158.978 60.529 159.245 59.7397 159.687C60.3117 158.657 61.397 157.951 62.6584 157.951Z" fill="black"/>
<path d="M119.992 157.951C119.888 157.951 119.788 157.963 119.686 157.973L118.154 155.419C118.02 155.197 117.781 155.061 117.521 155.061C116.946 155.061 116.593 155.691 116.894 156.183L118.273 158.433C117.773 158.738 117.358 159.171 117.073 159.687C117.861 159.245 118.878 158.978 119.992 158.978C121.104 158.978 122.121 159.245 122.909 159.687C122.338 158.657 121.252 157.951 119.992 157.951Z" fill="black"/>
<path d="M15.9422 203.445V188.533C15.9422 187.042 15.4742 185.845 14.5409 184.941C13.6076 184.038 12.3862 183.585 10.8822 183.585C9.94758 183.585 9.00624 183.838 8.05691 184.343C7.10891 184.847 6.43024 185.423 6.02358 186.071V203.445H0.284912V170.234L6.02358 168.878V180.785C7.48491 179.459 9.49558 178.797 12.0556 178.797C15.0836 178.797 17.4329 179.637 19.1049 181.315C20.7756 182.995 21.6129 185.401 21.6129 188.533V203.445H15.9422Z" fill="black"/>
<path d="M40.6356 192.058C39.6702 191.863 38.9476 191.763 38.4662 191.763C34.0076 191.763 31.7782 193.226 31.7782 196.147C31.7782 198.315 33.0369 199.401 35.5516 199.401C38.9409 199.401 40.6356 197.706 40.6356 194.317V192.058ZM41.1782 201.027C40.6649 201.87 39.7729 202.561 38.5009 203.094C37.2276 203.629 35.8982 203.897 34.5129 203.897C31.9076 203.897 29.8582 203.246 28.3676 201.942C26.8769 200.641 26.1316 198.79 26.1316 196.395C26.1316 193.594 27.1809 191.403 29.2822 189.821C31.3836 188.241 34.3689 187.449 38.2409 187.449C38.9036 187.449 39.6862 187.562 40.5902 187.789C40.5902 184.941 38.7902 183.518 35.1902 183.518C33.0662 183.518 31.2902 183.871 29.8582 184.581L28.6382 180.197C30.5809 179.263 32.8929 178.797 35.5742 178.797C39.2649 178.797 41.9689 179.637 43.6849 181.315C45.4022 182.995 46.2609 186.177 46.2609 190.861V196.034C46.2609 199.257 46.9089 201.283 48.2036 202.111C47.7369 202.925 47.2169 203.425 46.6449 203.614C46.0729 203.803 45.4169 203.897 44.6796 203.897C43.8662 203.897 43.1356 203.594 42.4876 202.993C41.8396 202.39 41.4036 201.735 41.1782 201.027Z" fill="black"/>
<path d="M76.1278 203.897H74.0718L67.4305 189.031L60.8105 203.897H58.7318L49.6052 179.249H55.5465L60.4038 193.685L66.3225 179.249H68.3572L74.4785 193.775L79.7198 179.249H85.2785L76.1278 203.897Z" fill="black"/>
<path d="M104.097 203.445L96.9799 192.487L94.2692 195.357V203.445H88.6212V170.234L94.2692 168.878V188.533L102.336 179.249H109.135L100.957 188.419L110.807 203.445H104.097Z" fill="black"/>
<path d="M112.48 201.886L114.491 197.39C116.176 198.732 118.083 199.401 120.207 199.401C122.404 199.401 123.504 198.618 123.504 197.052C123.504 196.133 123.173 195.38 122.509 194.792C121.847 194.204 120.56 193.512 118.647 192.713C114.475 190.981 112.389 188.557 112.389 185.438C112.389 183.346 113.187 181.714 114.784 180.548C116.381 179.38 118.421 178.797 120.905 178.797C123.421 178.797 125.785 179.361 128.001 180.49L126.373 184.874C125.139 183.82 123.421 183.293 121.224 183.293C119.249 183.293 118.263 184.076 118.263 185.641C118.263 186.26 118.587 186.816 119.233 187.313C119.883 187.81 121.268 188.477 123.392 189.313C125.515 190.149 127.044 191.162 127.977 192.352C128.912 193.541 129.379 194.98 129.379 196.668C129.379 198.912 128.547 200.677 126.883 201.965C125.217 203.252 122.953 203.897 120.093 203.897C118.481 203.897 117.189 203.764 116.219 203.501C115.247 203.238 114.001 202.698 112.48 201.886Z" fill="black"/>
<path d="M138.415 188.828H150.299C149.907 185.289 147.948 183.518 144.426 183.518C141.202 183.518 139.198 185.289 138.415 188.828ZM155.496 193.076H138.212C138.316 195.002 138.98 196.502 140.2 197.572C141.42 198.64 143.06 199.176 145.124 199.176C147.7 199.176 149.659 198.505 150.999 197.164L153.19 201.478C151.203 203.09 148.235 203.897 144.29 203.897C140.599 203.897 137.68 202.816 135.535 200.654C133.388 198.493 132.315 195.477 132.315 191.606C132.315 187.797 133.494 184.708 135.851 182.344C138.208 179.978 141.036 178.797 144.334 178.797C147.843 178.797 150.66 179.844 152.783 181.937C154.907 184.03 155.97 186.696 155.97 189.934C155.97 190.628 155.811 191.674 155.496 193.076Z" fill="black"/>
<path d="M165.007 188.828H176.89C176.498 185.289 174.541 183.518 171.017 183.518C167.793 183.518 165.79 185.289 165.007 188.828ZM182.087 193.076H164.803C164.909 195.002 165.571 196.502 166.791 197.572C168.011 198.64 169.651 199.176 171.717 199.176C174.291 199.176 176.25 198.505 177.591 197.164L179.782 201.478C177.794 203.09 174.826 203.897 170.881 203.897C167.19 203.897 164.273 202.816 162.126 200.654C159.979 198.493 158.907 195.477 158.907 191.606C158.907 187.797 160.086 184.708 162.442 182.344C164.799 179.978 167.627 178.797 170.925 178.797C174.435 178.797 177.251 179.844 179.374 181.937C181.498 184.03 182.561 186.696 182.561 189.934C182.561 190.628 182.403 191.674 182.087 193.076Z" fill="black"/>
</svg>
