<svg width="519" height="161" viewBox="0 0 519 161" fill="none" xmlns="http://www.w3.org/2000/svg">
<path d="M216.621 121.219C216.621 122.297 216.724 123.193 216.927 123.905C217.132 124.616 217.428 125.133 217.807 125.46C218.192 125.786 218.566 126.008 218.94 126.126C219.312 126.245 219.752 126.306 220.263 126.306C222.409 126.306 223.479 125.61 223.471 124.224V117.076C222.522 116.684 221.526 116.488 220.482 116.488C219.929 116.488 219.441 116.546 219.03 116.655C218.616 116.763 218.213 116.971 217.823 117.279C217.433 117.585 217.132 118.07 216.927 118.726C216.724 119.382 216.621 120.215 216.621 121.219ZM214.065 121.219C214.065 119.836 214.257 118.657 214.639 117.685C215.024 116.715 215.546 115.99 216.207 115.505C216.869 115.021 217.546 114.686 218.237 114.486C218.932 114.291 219.678 114.193 220.482 114.193C221.492 114.193 222.488 114.333 223.471 114.607V109.122H226.024V124.081C226.024 124.382 225.995 124.679 225.935 124.977C225.877 125.272 225.737 125.652 225.513 126.116C225.289 126.58 224.989 126.985 224.604 127.331C224.224 127.676 223.655 127.974 222.899 128.224C222.145 128.475 221.265 128.601 220.263 128.601C219.726 128.601 219.207 128.554 218.711 128.464C218.213 128.372 217.67 128.169 217.082 127.85C216.495 127.531 215.991 127.115 215.572 126.606C215.151 126.095 214.797 125.375 214.502 124.453C214.212 123.528 214.065 122.45 214.065 121.219Z" fill="black"/>
<path d="M232.417 114.411H234.976V128.382H232.417V114.411ZM232.338 109.546H235.055V112.25H232.338V109.546Z" fill="black"/>
<path d="M243.447 121.301C243.447 123.112 243.771 124.321 244.419 124.914C245.068 125.513 245.964 125.81 247.105 125.81C248.111 125.81 249.05 125.634 249.927 125.278V118.415C249.927 118.207 249.906 118.031 249.872 117.883C249.835 117.738 249.732 117.532 249.564 117.269C249.395 117.003 249.081 116.805 248.625 116.665C248.169 116.528 247.582 116.462 246.873 116.462C246.406 116.462 246 116.518 245.653 116.628C245.305 116.737 244.949 116.947 244.585 117.256C244.219 117.564 243.94 118.06 243.742 118.737C243.544 119.417 243.447 120.271 243.447 121.301ZM240.89 121.285C240.89 119.122 241.381 117.395 242.358 116.101C243.339 114.813 244.841 114.167 246.873 114.167C248.567 114.167 249.927 114.546 250.95 115.316C251.97 116.08 252.484 117.169 252.484 118.581V128.968C252.484 129.59 252.394 130.162 252.215 130.691C252.038 131.221 251.738 131.738 251.319 132.241C250.9 132.75 250.267 133.145 249.424 133.432C248.578 133.719 247.553 133.862 246.338 133.862C244.933 133.862 243.555 133.664 242.195 133.274V130.841C243.515 131.234 244.822 131.429 246.119 131.429C247.015 131.429 247.742 131.35 248.304 131.189C248.865 131.029 249.253 130.802 249.466 130.507C249.682 130.212 249.811 129.961 249.859 129.756C249.904 129.553 249.927 129.281 249.927 128.944V127.716C248.979 127.977 248.035 128.109 247.105 128.109C245.112 128.109 243.578 127.521 242.503 126.348C241.428 125.175 240.89 123.489 240.89 121.285Z" fill="black"/>
<path d="M258.848 114.411H261.407V128.382H258.848V114.411ZM258.767 109.546H261.484V112.25H258.767V109.546Z" fill="black"/>
<path d="M266.787 116.599V114.412H269.223V110.271H271.779V114.412H275.495V116.599H271.779V124.672C271.779 125.76 272.464 126.306 273.843 126.306H273.869C274.507 126.306 275.05 126.168 275.495 125.894V128.211C274.857 128.472 274.217 128.601 273.582 128.601H273.513C273.176 128.601 272.815 128.559 272.435 128.477C272.05 128.395 271.592 128.235 271.06 127.992C270.527 127.75 270.087 127.333 269.739 126.738C269.394 126.142 269.223 125.404 269.223 124.521V116.599H266.787Z" fill="black"/>
<path d="M282.888 123.939C282.888 125.515 284.006 126.303 286.243 126.303H286.283C288.394 126.303 289.448 125.547 289.448 124.034V121.778C288.776 121.67 287.967 121.61 287.021 121.602C286.649 121.602 286.256 121.636 285.848 121.702C285.439 121.773 284.999 121.878 284.525 122.021C284.051 122.168 283.66 122.408 283.352 122.743C283.044 123.078 282.888 123.476 282.888 123.939ZM280.332 123.966C280.332 122.585 280.914 121.507 282.082 120.729C283.252 119.952 284.86 119.565 286.91 119.565C287.782 119.565 288.631 119.62 289.448 119.728C289.395 118.553 289.074 117.712 288.486 117.201C287.898 116.689 286.939 116.434 285.603 116.434C284.39 116.434 283.099 116.666 281.734 117.132V114.945C283.054 114.444 284.464 114.193 285.956 114.193C287.904 114.193 289.408 114.697 290.468 115.704C291.527 116.71 292.057 118.157 292.057 120.042V124.076C292.057 124.377 292.031 124.675 291.97 124.972C291.912 125.268 291.767 125.647 291.543 126.111C291.319 126.577 291.016 126.981 290.631 127.329C290.249 127.674 289.672 127.972 288.902 128.225C288.135 128.475 287.247 128.601 286.243 128.601C285.213 128.601 284.309 128.47 283.534 128.209C282.759 127.948 282.174 127.645 281.781 127.297C281.391 126.952 281.078 126.538 280.846 126.064C280.614 125.589 280.469 125.196 280.416 124.883C280.358 124.575 280.332 124.269 280.332 123.966Z" fill="black"/>
<path d="M298.124 109.093H300.681V128.379H298.124V109.093Z" fill="black"/>
<path d="M320.099 128.381V115.56C321.965 114.63 323.896 114.166 325.899 114.166C327.415 114.166 328.659 114.516 329.634 115.22C331.392 114.516 333.102 114.166 334.757 114.166C336.523 114.166 337.899 114.624 338.887 115.547C339.875 116.467 340.368 117.753 340.368 119.402V128.381H337.814V119.223C337.814 118.422 337.614 117.776 337.224 117.281C336.831 116.791 336.064 116.546 334.923 116.546C333.69 116.546 332.441 116.804 331.17 117.323C331.389 117.916 331.497 118.58 331.497 119.321V128.381H328.941V119.25C328.941 118.433 328.725 117.784 328.29 117.31C327.858 116.836 326.996 116.598 325.71 116.598C324.713 116.598 323.696 116.741 322.655 117.023V128.381H320.099Z" fill="black"/>
<path d="M348.434 123.939C348.434 125.515 349.551 126.303 351.789 126.303H351.828C353.939 126.303 354.993 125.547 354.993 124.034V121.778C354.321 121.67 353.512 121.61 352.566 121.602C352.194 121.602 351.802 121.636 351.393 121.702C350.985 121.773 350.545 121.878 350.07 122.021C349.596 122.168 349.206 122.408 348.897 122.743C348.589 123.078 348.434 123.476 348.434 123.939ZM345.877 123.966C345.877 122.585 346.46 121.507 347.627 120.729C348.797 119.952 350.405 119.565 352.455 119.565C353.328 119.565 354.176 119.62 354.993 119.728C354.941 118.553 354.619 117.712 354.031 117.201C353.444 116.689 352.484 116.434 351.148 116.434C349.936 116.434 348.644 116.666 347.279 117.132V114.945C348.6 114.444 350.01 114.193 351.501 114.193C353.449 114.193 354.954 114.697 356.013 115.704C357.073 116.71 357.602 118.157 357.602 120.042V124.076C357.602 124.377 357.576 124.675 357.515 124.972C357.457 125.268 357.312 125.647 357.088 126.111C356.864 126.577 356.561 126.981 356.177 127.329C355.794 127.674 355.217 127.972 354.448 128.225C353.681 128.475 352.793 128.601 351.789 128.601C350.758 128.601 349.854 128.47 349.079 128.209C348.304 127.948 347.719 127.645 347.327 127.297C346.937 126.952 346.623 126.538 346.391 126.064C346.159 125.589 346.014 125.196 345.962 124.883C345.904 124.575 345.877 124.269 345.877 123.966Z" fill="black"/>
<path d="M363.412 128.381V115.589C365.745 114.659 368.011 114.192 370.217 114.192V116.546C368.828 116.564 367.413 116.759 365.969 117.131V128.381H363.412Z" fill="black"/>
<path d="M375.408 128.381V109.095H377.967V120.262L384.008 114.411H387.479L381.409 120.235L388.285 128.381H384.883L379.702 121.888L377.967 123.569V128.381H375.408Z" fill="black"/>
<path d="M394.554 120.55H401.733C401.693 120.083 401.614 119.641 401.493 119.216C401.369 118.792 401.182 118.362 400.932 117.925C400.681 117.487 400.32 117.14 399.846 116.879C399.372 116.62 398.805 116.489 398.149 116.489C396.973 116.489 396.112 116.792 395.561 117.401C395.01 118.004 394.673 119.056 394.554 120.55ZM391.984 121.562C391.984 116.652 394.04 114.193 398.149 114.193H398.178C400.046 114.193 401.535 114.802 402.653 116.022C403.77 117.245 404.329 118.879 404.329 120.929C404.329 121.594 404.3 122.234 404.247 122.845H394.596C394.907 125.241 396.22 126.44 398.533 126.44C400.42 126.44 402.028 126.092 403.359 125.389V127.718C401.917 128.324 400.291 128.625 398.478 128.625H398.396C397.574 128.625 396.818 128.522 396.127 128.319C395.434 128.114 394.76 127.774 394.106 127.299C393.45 126.825 392.933 126.095 392.554 125.114C392.177 124.134 391.984 122.948 391.984 121.562Z" fill="black"/>
<path d="M408.153 116.599V114.412H410.589V110.271H413.145V114.412H416.861V116.599H413.145V124.672C413.145 125.76 413.83 126.306 415.208 126.306H415.235C415.873 126.306 416.415 126.168 416.861 125.894V128.211C416.223 128.472 415.583 128.601 414.948 128.601H414.879C414.542 128.601 414.181 128.559 413.801 128.477C413.416 128.395 412.958 128.235 412.425 127.992C411.893 127.75 411.453 127.333 411.105 126.738C410.76 126.142 410.589 125.404 410.589 124.521V116.599H408.153Z" fill="black"/>
<path d="M422.555 114.411H425.114V128.382H422.555V114.411ZM422.476 109.546H425.193V112.25H422.476V109.546Z" fill="black"/>
<path d="M431.916 128.381V115.597C433.853 114.643 435.838 114.166 437.87 114.166C439.641 114.166 441.024 114.624 442.028 115.547C443.033 116.467 443.533 117.742 443.533 119.373V128.381H440.924V119.176C440.924 118.351 440.713 117.703 440.294 117.231C439.875 116.754 439.029 116.517 437.762 116.517C436.618 116.517 435.522 116.688 434.473 117.023V128.381H431.916Z" fill="black"/>
<path d="M451.994 121.301C451.994 123.112 452.318 124.321 452.966 124.914C453.614 125.513 454.51 125.81 455.652 125.81C456.658 125.81 457.597 125.634 458.474 125.278V118.415C458.474 118.207 458.453 118.031 458.419 117.883C458.382 117.738 458.279 117.532 458.11 117.269C457.942 117.003 457.628 116.805 457.172 116.665C456.716 116.528 456.129 116.462 455.42 116.462C454.953 116.462 454.547 116.518 454.199 116.628C453.852 116.737 453.496 116.947 453.132 117.256C452.766 117.564 452.486 118.06 452.289 118.737C452.091 119.417 451.994 120.271 451.994 121.301ZM449.437 121.285C449.437 119.122 449.927 117.395 450.905 116.101C451.886 114.813 453.388 114.167 455.42 114.167C457.114 114.167 458.474 114.546 459.497 115.316C460.517 116.08 461.031 117.169 461.031 118.581V128.968C461.031 129.59 460.941 130.162 460.762 130.691C460.585 131.221 460.285 131.738 459.866 132.241C459.447 132.75 458.814 133.145 457.971 133.432C457.125 133.719 456.1 133.862 454.885 133.862C453.48 133.862 452.102 133.664 450.742 133.274V130.841C452.062 131.234 453.369 131.429 454.666 131.429C455.562 131.429 456.289 131.35 456.851 131.189C457.412 131.029 457.799 130.802 458.013 130.507C458.229 130.212 458.358 129.961 458.406 129.756C458.45 129.553 458.474 129.281 458.474 128.944V127.716C457.525 127.977 456.582 128.109 455.652 128.109C453.659 128.109 452.125 127.521 451.05 126.348C449.975 125.175 449.437 123.489 449.437 121.285Z" fill="black"/>
<path d="M189.663 97.1858V67.7135C189.663 64.7644 188.738 62.3978 186.893 60.6136C185.049 58.8268 182.634 57.9334 179.662 57.9334C177.814 57.9334 175.954 58.4315 174.077 59.4277C172.203 60.4265 170.862 61.565 170.058 62.8458V97.1858H158.715V31.5419L170.058 28.8617V52.3963C172.947 49.7766 176.921 48.4668 181.981 48.4668C187.966 48.4668 192.61 50.1271 195.914 53.4452C199.217 56.7658 200.872 61.5202 200.872 67.7135V97.1858H189.663Z" fill="black"/>
<path d="M238.472 74.679C236.564 74.2916 235.135 74.0992 234.184 74.0992C225.371 74.0992 220.964 76.9851 220.964 82.762C220.964 87.0498 223.452 89.1925 228.423 89.1925C235.122 89.1925 238.472 85.8428 238.472 79.1435V74.679ZM239.544 92.4077C238.53 94.0733 236.767 95.4359 234.252 96.4927C231.735 97.5495 229.108 98.0766 226.37 98.0766C221.22 98.0766 217.169 96.7931 214.223 94.2156C211.276 91.6408 209.803 87.9854 209.803 83.2522C209.803 77.7151 211.877 73.385 216.031 70.2568C220.184 67.1337 226.085 65.5683 233.738 65.5683C235.048 65.5683 236.595 65.7923 238.382 66.2377C238.382 60.6136 234.824 57.799 227.709 57.799C223.51 57.799 220 58.4974 217.169 59.8968L214.758 51.2341C218.598 49.3893 223.168 48.4668 228.468 48.4668C235.762 48.4668 241.107 50.1272 244.499 53.4452C247.893 56.7659 249.591 63.0541 249.591 72.3124V82.538C249.591 88.9078 250.871 92.9137 253.431 94.5503C252.508 96.158 251.48 97.1489 250.35 97.5205C249.219 97.8921 247.922 98.0766 246.465 98.0766C244.857 98.0766 243.413 97.4836 242.132 96.2924C240.852 95.1038 239.99 93.8071 239.544 92.4077Z" fill="black"/>
<path d="M308.625 98.0778H304.561L291.434 68.6951L278.349 98.0778H274.241L256.201 49.3588H267.944L277.545 77.8929L289.244 49.3588H293.266L305.365 78.0721L315.725 49.3588H326.712L308.625 98.0778Z" fill="black"/>
<path d="M363.909 97.1858L349.841 75.5276L344.483 81.1991V97.1858H333.32V31.5419L344.483 28.8617V67.7135L360.428 49.3602H373.866L357.703 67.4895L377.171 97.1858H363.909Z" fill="black"/>
<path d="M380.479 94.104L384.453 85.2173C387.784 87.8685 391.553 89.1915 395.751 89.1915C400.094 89.1915 402.268 87.6445 402.268 84.5479C402.268 82.732 401.615 81.243 400.302 80.0834C398.993 78.9212 396.449 77.5534 392.667 75.9747C384.421 72.5513 380.299 67.7574 380.299 61.5957C380.299 57.4581 381.875 54.2349 385.033 51.9262C388.19 49.6202 392.222 48.4659 397.132 48.4659C402.105 48.4659 406.778 49.5833 411.158 51.8156L407.94 60.4783C405.499 58.3963 402.105 57.3526 397.762 57.3526C393.859 57.3526 391.908 58.9023 391.908 61.9963C391.908 63.2165 392.549 64.3181 393.827 65.3012C395.111 66.2842 397.849 67.6019 402.047 69.2517C406.243 70.9041 409.266 72.9097 411.11 75.2605C412.958 77.6114 413.88 80.455 413.88 83.7888C413.88 88.2243 412.236 91.7163 408.947 94.2621C405.655 96.8053 401.18 98.0783 395.527 98.0783C392.341 98.0783 389.787 97.8174 387.868 97.2955C385.947 96.7763 383.486 95.7116 380.479 94.104Z" fill="black"/>
<path d="M431.741 68.2936H455.231C454.456 61.2965 450.585 57.7992 443.622 57.7992C437.249 57.7992 433.288 61.2965 431.741 68.2936ZM465.504 76.6901H431.341C431.546 80.4984 432.859 83.4606 435.27 85.5742C437.681 87.6879 440.923 88.7447 445.003 88.7447C450.094 88.7447 453.966 87.4217 456.615 84.7704L460.945 93.3014C457.018 96.485 451.151 98.0768 443.353 98.0768C436.058 98.0768 430.289 95.9421 426.049 91.67C421.805 87.4006 419.684 81.4366 419.684 73.7859C419.684 66.2538 422.014 60.15 426.673 55.4774C431.333 50.8021 436.922 48.4671 443.44 48.4671C450.376 48.4671 455.945 50.5359 460.141 54.6736C464.339 58.8112 466.439 64.0821 466.439 70.481C466.439 71.8514 466.126 73.9203 465.504 76.6901Z" fill="black"/>
<path d="M484.303 68.2936H507.791C507.016 61.2965 503.147 57.7992 496.181 57.7992C489.809 57.7992 485.85 61.2965 484.303 68.2936ZM518.063 76.6901H483.9C484.108 80.4984 485.418 83.4606 487.83 85.5742C490.241 87.6879 493.483 88.7447 497.565 88.7447C502.654 88.7447 506.526 87.4217 509.177 84.7704L513.507 93.3014C509.577 96.485 503.711 98.0768 495.913 98.0768C488.618 98.0768 482.851 95.9421 478.608 91.67C474.365 87.4006 472.246 81.4366 472.246 73.7859C472.246 66.2538 474.576 60.15 479.233 55.4774C483.892 50.8021 489.482 48.4671 496 48.4671C502.939 48.4671 508.505 50.5359 512.7 54.6736C516.899 58.8112 518.999 64.0821 518.999 70.481C518.999 71.8514 518.688 73.9203 518.063 76.6901Z" fill="black"/>
<path d="M61.6674 102.256L59.9379 101.851L62.1569 104.076L61.6674 102.256Z" fill="black"/>
<path d="M67.2414 102.345L66.8344 104.071L69.0629 101.856L67.2414 102.345Z" fill="black"/>
<path d="M117.967 28.4938C121.645 18.9959 125.322 9.49793 129 0C125.697 3.80727 122.39 7.61454 119.085 11.4218C110.74 21.0359 102.394 30.6499 94.0503 40.2626C90.3871 44.4803 86.7266 48.698 83.0648 52.9157C80.4739 55.9008 76.4591 59.1734 76.2198 63.2493C75.6694 72.669 73.9913 81.9954 73.2679 91.3989C72.9974 93.8736 72.681 96.347 72.4565 98.8257C72.0901 102.883 69.0989 104.772 66.4743 107.599L64.5 114.298L62.5271 107.599C59.9011 104.772 56.9099 102.883 56.5448 98.8257C56.3204 96.347 56.0039 93.8736 55.7335 91.3989C55.0087 81.9954 53.3319 72.669 52.7802 63.2493C52.5422 59.1734 48.5261 55.9008 45.9352 52.9157C42.2734 48.698 38.6129 44.4803 34.9524 40.2626C26.6065 30.6499 18.2605 21.0359 9.91455 11.4218C6.6097 7.61454 3.30485 3.80727 0 0C3.67807 9.49793 7.35613 18.9959 11.0328 28.4938C13.6859 35.3442 17.8264 41.5209 23.1583 46.5797L45.9731 68.2312L16.9583 43.7944C19.203 49.5904 21.4477 55.3891 23.6924 61.1864C24.8026 64.0513 26.6633 66.5665 29.0824 68.4661L47.5566 82.9783L26.5389 68.5377L31.9451 82.4977C32.6455 84.3055 33.9139 85.8378 35.5609 86.8639L50.6356 96.2592L33.8057 87.3054C35.3486 91.2868 36.8902 95.2682 38.4317 99.251C39.0091 100.742 40.1207 101.965 41.5513 102.684L52.2299 108.048L39.8448 102.899L43.6676 112.774C45.274 116.921 51.2928 127.278 49.1441 131.427C45.3876 138.679 41.6636 145.95 37.9382 153.218C37.2715 154.52 38.2181 156.066 39.6825 156.066C40.1612 156.066 40.6237 155.892 40.982 155.574C44.2206 152.712 47.4592 149.849 50.6992 146.986C53.0412 144.917 55.3833 142.847 57.724 140.777C60.2405 138.552 61.4264 138.378 64.5 138.261C67.5736 138.378 68.7595 138.552 71.276 140.777C73.6181 142.847 75.9602 144.917 78.3022 146.986C81.5422 149.849 84.7794 152.712 88.0193 155.574C88.3777 155.892 88.8388 156.066 89.3175 156.066C90.7819 156.066 91.7299 154.52 91.0632 153.218C87.3378 145.95 83.6138 138.679 79.8559 131.427C77.7086 127.278 83.7274 116.921 85.3325 112.774C86.6076 109.482 87.8814 106.191 89.1566 102.899L76.7715 108.048L87.45 102.684C88.8794 101.966 89.9922 100.742 90.5683 99.251C92.1112 95.2682 93.6527 91.2868 95.1943 87.3054L78.3658 96.2592L93.4404 86.8639C95.0874 85.8378 96.3558 84.3055 97.0563 82.4977L102.461 68.5377L81.4448 82.9783L99.919 68.4661C102.337 66.5665 104.197 64.0513 105.309 61.1864C107.554 55.3891 109.798 49.5904 112.043 43.7944L83.0269 68.2312L105.842 46.5797C111.175 41.5209 115.315 35.3442 117.967 28.4938Z" fill="black"/>
<path d="M35.328 159.244C35.4334 159.244 35.5349 159.256 35.6376 159.265L37.1913 156.678C37.3266 156.454 37.57 156.317 37.8323 156.317C38.4165 156.317 38.7748 156.955 38.4692 157.452L37.071 159.731C37.5781 160.04 37.9986 160.479 38.288 161C37.4875 160.553 36.4557 160.282 35.328 160.282C34.2002 160.282 33.1685 160.553 32.3679 161C32.948 159.958 34.0488 159.244 35.328 159.244Z" fill="black"/>
<path d="M93.4739 159.244C93.3684 159.244 93.267 159.256 93.1642 159.265L91.6105 156.678C91.4739 156.454 91.2319 156.317 90.9682 156.317C90.3854 156.317 90.027 156.955 90.3326 157.452L91.7308 159.731C91.2237 160.04 90.8032 160.479 90.5138 161C91.313 160.553 92.3447 160.282 93.4739 160.282C94.6016 160.282 95.6334 160.553 96.4325 161C95.8538 159.958 94.7517 159.244 93.4739 159.244Z" fill="black"/>
</svg>
