<svg width="155" height="48" viewBox="0 0 155 48" fill="none" xmlns="http://www.w3.org/2000/svg">
<path d="M56.643 20.9747V12.1879C56.643 11.3086 56.3668 10.6031 55.8158 10.0711C55.2651 9.53843 54.5438 9.27207 53.6562 9.27207C53.1043 9.27207 52.5488 9.42058 51.9883 9.71758C51.4286 10.0154 51.0281 10.3548 50.788 10.7366V20.9747H47.4004V1.4038L50.788 0.604736V7.62126C51.6508 6.84023 52.8376 6.44973 54.3488 6.44973C56.1362 6.44973 57.5232 6.94473 58.5099 7.93398C59.4964 8.92397 59.9906 10.3414 59.9906 12.1879V20.9747H56.643Z" fill="black"/>
<path d="M71.2199 14.2645C70.6501 14.149 70.2233 14.0917 69.9393 14.0917C67.3073 14.0917 65.9911 14.9521 65.9911 16.6744C65.9911 17.9527 66.7342 18.5915 68.2188 18.5915C70.2194 18.5915 71.2199 17.5929 71.2199 15.5956V14.2645ZM71.5401 19.5501C71.2372 20.0467 70.7107 20.4529 69.9596 20.768C69.2079 21.0831 68.4233 21.2402 67.6056 21.2402C66.0676 21.2402 64.8577 20.8576 63.9779 20.0891C63.0978 19.3215 62.6579 18.2317 62.6579 16.8205C62.6579 15.1697 63.2773 13.8788 64.5179 12.9461C65.7582 12.015 67.5205 11.5483 69.8061 11.5483C70.1973 11.5483 70.6593 11.6151 71.193 11.7479C71.193 10.0711 70.1304 9.23199 68.0055 9.23199C66.7515 9.23199 65.7032 9.44021 64.8577 9.85742L64.1377 7.27476C65.2845 6.72475 66.6493 6.44972 68.2322 6.44972C70.4106 6.44972 72.0068 6.94475 73.0199 7.93397C74.0335 8.92399 74.5406 10.7987 74.5406 13.559V16.6076C74.5406 18.5067 74.9229 19.701 75.6874 20.1889C75.4118 20.6682 75.1048 20.9636 74.7673 21.0744C74.4295 21.1852 74.0422 21.2402 73.607 21.2402C73.1268 21.2402 72.6955 21.0634 72.313 20.7083C71.9307 20.3539 71.6733 19.9673 71.5401 19.5501Z" fill="black"/>
<path d="M92.1712 21.2406H90.9575L87.0371 12.4805L83.1292 21.2406H81.9024L76.5147 6.71567H80.0217L82.8891 15.2227L86.383 6.71567H87.5842L91.1976 15.2762L94.2916 6.71567H97.5729L92.1712 21.2406Z" fill="black"/>
<path d="M108.682 20.9747L104.48 14.5176L102.88 16.2084V20.9747H99.5464V1.4038L102.88 0.604736V12.1879L107.642 6.71609H111.655L106.828 12.1211L112.643 20.9747H108.682Z" fill="black"/>
<path d="M113.63 20.0559L114.817 17.4064C115.812 18.1968 116.938 18.5913 118.191 18.5913C119.489 18.5913 120.138 18.13 120.138 17.2068C120.138 16.6654 119.943 16.2215 119.551 15.8758C119.16 15.5293 118.4 15.1215 117.27 14.6508C114.808 13.6302 113.577 12.201 113.577 10.3639C113.577 9.13037 114.047 8.16941 114.991 7.48111C115.933 6.7936 117.138 6.44946 118.604 6.44946C120.089 6.44946 121.485 6.7826 122.793 7.44813L121.832 10.0308C121.103 9.41008 120.089 9.09891 118.792 9.09891C117.626 9.09891 117.044 9.56094 117.044 10.4834C117.044 10.8472 117.235 11.1756 117.617 11.4687C118 11.7618 118.818 12.1546 120.072 12.6465C121.325 13.1391 122.228 13.7371 122.778 14.4379C123.33 15.1388 123.606 15.9866 123.606 16.9805C123.606 18.3029 123.115 19.344 122.132 20.103C121.149 20.8612 119.813 21.2407 118.125 21.2407C117.173 21.2407 116.41 21.163 115.837 21.0074C115.264 20.8526 114.529 20.5351 113.63 20.0559Z" fill="black"/>
<path d="M128.94 12.3608H135.955C135.724 10.2747 134.568 9.23205 132.488 9.23205C130.585 9.23205 129.402 10.2747 128.94 12.3608ZM139.023 14.8641H128.82C128.882 15.9995 129.274 16.8827 129.994 17.5128C130.714 18.143 131.682 18.458 132.901 18.458C134.421 18.458 135.577 18.0636 136.369 17.2732L137.662 19.8166C136.489 20.7657 134.737 21.2403 132.408 21.2403C130.229 21.2403 128.506 20.6039 127.24 19.3302C125.973 18.0573 125.339 16.2792 125.339 13.9983C125.339 11.7527 126.035 9.93292 127.426 8.53984C128.818 7.14596 130.487 6.44981 132.434 6.44981C134.505 6.44981 136.169 7.0666 137.422 8.3002C138.675 9.53377 139.303 11.1052 139.303 13.013C139.303 13.4215 139.209 14.0383 139.023 14.8641Z" fill="black"/>
<path d="M144.638 12.3608H151.652C151.421 10.2747 150.265 9.23205 148.185 9.23205C146.282 9.23205 145.1 10.2747 144.638 12.3608ZM154.72 14.8641H144.517C144.579 15.9995 144.971 16.8827 145.691 17.5128C146.411 18.143 147.379 18.458 148.598 18.458C150.118 18.458 151.275 18.0636 152.066 17.2732L153.359 19.8166C152.186 20.7657 150.434 21.2403 148.105 21.2403C145.926 21.2403 144.204 20.6039 142.937 19.3302C141.67 18.0573 141.037 16.2792 141.037 13.9983C141.037 11.7527 141.733 9.93292 143.123 8.53984C144.515 7.14596 146.184 6.44981 148.131 6.44981C150.203 6.44981 151.866 7.0666 153.118 8.3002C154.372 9.53377 155 11.1052 155 13.013C155 13.4215 154.907 14.0383 154.72 14.8641Z" fill="black"/>
<path d="M18.4169 30.4862L17.9004 30.3655L18.5631 31.0288L18.4169 30.4862Z" fill="black"/>
<path d="M20.0815 30.5129L19.96 31.0274L20.6255 30.3671L20.0815 30.5129Z" fill="black"/>
<path d="M35.231 8.49505C36.3294 5.66337 37.4276 2.83168 38.526 0C37.5396 1.13509 36.5519 2.27017 35.5649 3.40526C33.0726 6.27157 30.5801 9.13786 28.0882 12.0038C26.9942 13.2612 25.901 14.5187 24.8074 15.7761C24.0336 16.6661 22.8346 17.6418 22.7631 18.8569C22.5988 21.6653 22.0976 24.4458 21.8816 27.2494C21.8008 27.9872 21.7063 28.7246 21.6392 29.4636C21.5298 30.6732 20.6365 31.2364 19.8526 32.0792L19.263 34.0764L18.6738 32.0792C17.8895 31.2364 16.9962 30.6732 16.8872 29.4636C16.8202 28.7246 16.7256 27.9872 16.6449 27.2494C16.4284 24.4458 15.9276 21.6653 15.7629 18.8569C15.6918 17.6418 14.4924 16.6661 13.7186 15.7761C12.625 14.5187 11.5318 13.2612 10.4386 12.0038C7.94607 9.13786 5.45352 6.27157 2.96099 3.40526C1.974 2.27017 0.986998 1.13509 0 0C1.09846 2.83168 2.19692 5.66337 3.29496 8.49505C4.08731 10.5374 5.32388 12.3789 6.91626 13.8871L13.7299 20.3422L5.06462 13.0567C5.735 14.7847 6.40538 16.5135 7.07577 18.2419C7.40733 19.096 7.96303 19.8459 8.6855 20.4123L14.2028 24.7389L7.92588 20.4336L9.54045 24.5956C9.74962 25.1346 10.1284 25.5914 10.6203 25.8973L15.1224 28.6984L10.0961 26.0289C10.5569 27.2159 11.0173 28.4029 11.4777 29.5904C11.6501 30.0349 11.9821 30.3995 12.4093 30.6139L15.5985 32.2131L11.8997 30.678L13.0414 33.6221C13.5211 34.8584 15.3187 37.9462 14.6769 39.1832C13.5551 41.3453 12.4429 43.513 11.3303 45.6799C11.1312 46.0681 11.4139 46.529 11.8512 46.529C11.9942 46.529 12.1323 46.4771 12.2393 46.3823C13.2065 45.529 14.1738 44.6755 15.1414 43.8219C15.8408 43.2051 16.5403 42.5879 17.2393 41.9708C17.9909 41.3074 18.3451 41.2556 19.263 41.2207C20.1809 41.2556 20.5351 41.3074 21.2867 41.9708C21.9861 42.5879 22.6856 43.2051 23.3851 43.8219C24.3527 44.6755 25.3195 45.529 26.2871 46.3823C26.3941 46.4771 26.5318 46.529 26.6748 46.529C27.1121 46.529 27.3953 46.0681 27.1961 45.6799C26.0835 43.513 24.9714 41.3453 23.8491 39.1832C23.2078 37.9462 25.0053 34.8584 25.4847 33.6221C25.8655 32.6406 26.2459 31.6594 26.6267 30.678L22.9279 32.2131L26.1171 30.6139C26.5439 30.3998 26.8763 30.0349 27.0483 29.5904C27.5091 28.4029 27.9695 27.2159 28.4299 26.0289L23.404 28.6984L27.9061 25.8973C28.398 25.5914 28.7768 25.1346 28.986 24.5956L30.6001 20.4336L24.3236 24.7389L29.8409 20.4123C30.5631 19.8459 31.1186 19.096 31.4507 18.2419C32.1211 16.5135 32.7913 14.7847 33.4618 13.0567L24.7961 20.3422L31.6098 13.8871C33.2026 12.3789 34.439 10.5374 35.231 8.49505Z" fill="black"/>
<path d="M10.551 47.4765C10.5825 47.4765 10.6128 47.4801 10.6435 47.4828L11.1075 46.7115C11.1479 46.6447 11.2206 46.6039 11.2989 46.6039C11.4734 46.6039 11.5804 46.7941 11.4892 46.9423L11.0716 47.6217C11.223 47.7138 11.3486 47.8447 11.435 48.0001C11.196 47.8668 10.8878 47.786 10.551 47.786C10.2142 47.786 9.90609 47.8668 9.66699 48.0001C9.84024 47.6894 10.169 47.4765 10.551 47.4765Z" fill="black"/>
<path d="M27.9158 47.4765C27.8843 47.4765 27.854 47.4801 27.8233 47.4828L27.3593 46.7115C27.3185 46.6447 27.2462 46.6039 27.1675 46.6039C26.9934 46.6039 26.8864 46.7941 26.9777 46.9423L27.3952 47.6217C27.2438 47.7138 27.1182 47.8447 27.0318 48.0001C27.2705 47.8668 27.5786 47.786 27.9158 47.786C28.2526 47.786 28.5607 47.8668 28.7994 48.0001C28.6266 47.6894 28.2974 47.4765 27.9158 47.4765Z" fill="black"/>
<path d="M54.6389 45.3842C54.2645 45.3842 53.9505 45.5018 53.7042 45.7335C53.4453 45.9784 53.3143 46.3024 53.3143 46.6977C53.3143 47.1055 53.4442 47.4214 53.7015 47.637C53.9644 47.8789 54.2788 48 54.6389 48C54.9906 48 55.3014 47.8789 55.5619 47.6394C55.8329 47.4109 55.9635 47.1036 55.9635 46.6977C55.9635 46.3029 55.8321 45.9784 55.573 45.7335C55.3262 45.5018 55.0121 45.3842 54.6389 45.3842Z" fill="black"/>
<path d="M51.5848 45.3842C51.211 45.3842 50.8969 45.5018 50.6507 45.7335C50.3915 45.9784 50.2602 46.3029 50.2602 46.6977C50.2602 47.1055 50.3907 47.4214 50.648 47.637C50.9107 47.8789 51.2253 48 51.5848 48C51.9371 48 52.2479 47.8789 52.5084 47.6394C52.7789 47.4109 52.9094 47.1036 52.9094 46.6977C52.9094 46.3029 52.7783 45.9784 52.5189 45.7335C52.2727 45.5018 51.9586 45.3842 51.5848 45.3842Z" fill="black"/>
<path d="M90.6198 31.9514C90.3025 31.7679 89.55 31.4611 88.3832 31.0402C88.188 30.9804 87.7989 30.8405 87.2303 30.6257C86.2407 30.2613 85.3615 29.8994 84.6187 29.5498L84.5985 29.5406L84.5872 29.5218C84.4524 29.3027 84.4734 29.0724 84.6489 28.8555C84.7436 28.7365 84.9148 28.6028 85.171 28.4472L89.5888 25.713L88.9418 23L83.3127 26.5031C82.4986 27.0193 81.994 27.67 81.8132 28.4378C81.712 28.8767 81.7526 29.3867 81.9343 29.9529C82.0796 30.3892 82.3151 30.872 82.634 31.3881C82.8275 31.5117 83.2559 31.7175 83.9069 31.9998C84.341 32.1823 85.0442 32.4606 85.9958 32.8263C86.5747 33.0462 87.3129 33.3357 88.1897 33.6875C88.9117 33.9515 89.4152 34.2445 89.6833 34.5586C90.0361 34.9744 90.0816 35.5116 89.8181 36.155L89.7995 36.201H77.7482C77.4866 36.201 77.2998 36.06 77.2088 35.7933C77.1607 35.6493 77.1373 35.437 77.1373 35.1431V30.5046L74.5664 31.4145V34.103C74.5664 35.0131 74.4488 35.6302 74.2071 35.9898C73.9646 36.3679 73.5771 36.5595 73.0539 36.5595C73.0335 36.5595 73.013 36.5595 72.9923 36.559C72.5967 36.559 72.1629 36.4314 71.7059 36.1808L71.6559 36.1531L71.6707 36.0972C71.8098 35.5753 71.8806 34.9491 71.8806 34.2367V30.5043L69.2981 31.4145V34.103C69.2981 34.9978 69.1846 35.6141 68.9512 35.9874C68.7055 36.3359 68.3411 36.5307 67.8662 36.5695C67.5405 36.6069 67.1342 36.5732 66.6586 36.4677L66.6008 36.4548V30.5046L64.0409 31.4145V35.4227C63.9917 35.9413 63.7715 36.201 63.3856 36.201H55.1369L54.1409 38.8502H56.9572L56.9085 38.9549C56.388 40.072 55.5567 40.8264 54.438 41.1972C53.4256 41.5285 52.4045 41.4908 51.4007 41.0834C50.3722 40.6676 49.666 39.9803 49.3019 39.0394C49.0446 38.3435 48.9835 37.5671 49.1186 36.7307C49.2343 36.0293 49.4577 35.3291 49.7831 34.648L47.6307 33.8707C46.9576 35.3598 46.6527 36.8286 46.7253 38.2377C46.8131 39.8807 47.382 41.2306 48.4151 42.2497C49.0163 42.8512 49.7787 43.3235 50.6819 43.6537C51.4462 43.9325 52.3033 44.0741 53.2291 44.0741C54.7846 44.0741 56.1652 43.5719 57.3321 42.5815C58.4554 41.6412 59.2073 40.4047 59.5671 38.9065L59.5806 38.8502H63.3972C63.7102 38.8502 63.9841 38.8282 64.2107 38.7846C64.3622 38.7555 64.6171 38.6667 64.9683 38.5203L64.999 38.5079L65.0286 38.5222C65.4783 38.7396 65.9081 38.8502 66.3053 38.8502H67.8933C68.8565 38.8502 69.7672 38.5208 70.5999 37.8701L70.641 37.8381L70.6849 37.8663C71.5784 38.4377 72.4872 38.7272 73.3858 38.7272C74.2566 38.7272 74.9978 38.5647 75.5879 38.2439L75.6278 38.2226L75.6649 38.2482C75.9986 38.4807 76.3261 38.6427 76.6378 38.7302C76.929 38.8101 77.3022 38.8502 77.7482 38.8502H91.2867C92.0448 37.6021 92.4363 36.2306 92.4506 34.7731C92.4296 34.35 92.3341 33.9523 92.1672 33.5968C91.8402 32.9138 91.3192 32.3599 90.6198 31.9514Z" fill="black"/>
<path d="M120.383 36.1369L120.375 36.201H117.906L117.911 36.1227C117.926 35.8813 117.933 35.7066 117.933 35.5906V32.9888H118.052C118.912 32.9888 119.534 33.1053 119.903 33.3357C120.266 33.5728 120.465 34.0249 120.496 34.681C120.512 34.9595 120.474 35.4496 120.383 36.1369ZM115.295 35.0314C115.295 35.3215 115.263 35.5589 115.201 35.7378C115.085 36.0373 114.89 36.1929 114.62 36.201C113.869 36.1856 113.315 36.0772 112.97 35.8778C112.5 35.6121 112.262 35.1277 112.262 34.4385C112.262 34.0782 112.3 33.6602 112.375 33.1965L112.385 33.1344H115.295V35.0314ZM97.9019 36.2007V35.9103C98.1131 33.9958 99.1727 33.0386 101.079 33.0386C102.823 33.0386 103.906 33.9958 104.329 35.9103L104.377 36.2007H97.9019ZM121.697 31.4868C120.863 30.8221 119.742 30.4849 118.365 30.4849H110.579C110.314 31.4325 110.139 32.3356 110.06 33.1704C109.942 34.3271 109.983 35.3161 110.181 36.1097L110.204 36.201H107.542C107.334 34.6891 106.73 33.4204 105.717 32.4034C104.441 31.1246 102.912 30.4849 101.128 30.4849C99.23 30.4849 97.7065 31.0511 96.5579 32.183C94.8135 33.9016 94.6316 36.3872 95.0503 38.6736C95.0611 38.7326 95.0718 38.7915 95.0845 38.8502H104.353C104.206 39.587 103.881 40.1869 103.364 40.6393C102.704 41.2176 101.816 41.5066 100.7 41.5066C99.3077 41.5066 98.2477 41.1444 97.5232 40.4191L96.3383 42.7535C97.4132 43.6251 99.0179 44.0606 101.152 44.0606C103.148 44.0606 104.727 43.4763 105.887 42.3075C106.768 41.4208 107.312 40.2676 107.525 38.8502H122.473C122.649 38.317 122.789 37.6163 122.889 36.7675C122.963 36.0513 123 35.2897 123 34.5055C123 33.2076 122.562 32.1919 121.697 31.4868Z" fill="black"/>
</svg>
