<svg width="285" height="347" viewBox="0 0 285 347" fill="none" xmlns="http://www.w3.org/2000/svg">
<path d="M138.133 157.897L135.466 157.269L138.888 160.705L138.133 157.897Z" fill="black"/>
<path d="M146.726 158.033L146.099 160.697L149.535 157.276L146.726 158.033Z" fill="black"/>
<path d="M45.8062 336.037C45.8062 336.89 45.8875 337.599 46.048 338.162C46.2106 338.725 46.4441 339.133 46.7443 339.392C47.0487 339.65 47.3447 339.825 47.6408 339.919C47.9347 340.013 48.2829 340.061 48.6873 340.061C50.3843 340.061 51.2307 339.51 51.2245 338.414V332.76C50.474 332.449 49.6859 332.295 48.8604 332.295C48.4226 332.295 48.0369 332.341 47.7117 332.426C47.3844 332.512 47.0654 332.677 46.7568 332.921C46.4483 333.162 46.2106 333.546 46.048 334.065C45.8875 334.584 45.8062 335.243 45.8062 336.037ZM43.784 336.037C43.784 334.943 43.9362 334.011 44.2385 333.242C44.5428 332.474 44.9556 331.901 45.4789 331.518C46.0022 331.134 46.5379 330.869 47.0841 330.711C47.6345 330.556 48.2245 330.479 48.8604 330.479C49.6588 330.479 50.4469 330.59 51.2245 330.807V326.468H53.2446V338.301C53.2446 338.539 53.2217 338.775 53.1737 339.01C53.1278 339.244 53.0174 339.544 52.8402 339.911C52.6629 340.278 52.4253 340.599 52.1209 340.872C51.8207 341.145 51.3704 341.381 50.7721 341.579C50.1758 341.777 49.4795 341.877 48.6873 341.877C48.262 341.877 47.8513 341.839 47.4594 341.768C47.0654 341.695 46.6359 341.535 46.171 341.283C45.7061 341.03 45.3079 340.701 44.9765 340.299C44.6429 339.894 44.3635 339.325 44.13 338.595C43.9007 337.864 43.784 337.011 43.784 336.037Z" fill="black"/>
<path d="M58.3016 330.652H60.3259V341.703H58.3016V330.652ZM58.239 326.804H60.3884V328.943H58.239V326.804Z" fill="black"/>
<path d="M67.0263 336.102C67.0263 337.535 67.2827 338.491 67.7956 338.961C68.3084 339.434 69.0173 339.669 69.92 339.669C70.7163 339.669 71.4585 339.53 72.1527 339.248V333.82C72.1527 333.655 72.136 333.515 72.1089 333.398C72.0798 333.284 71.9985 333.121 71.865 332.913C71.7316 332.702 71.4835 332.546 71.1229 332.435C70.7622 332.327 70.2973 332.275 69.7365 332.275C69.3675 332.275 69.0464 332.319 68.7713 332.406C68.4961 332.492 68.2146 332.658 67.9269 332.902C67.6372 333.146 67.4162 333.538 67.2598 334.074C67.1034 334.612 67.0263 335.287 67.0263 336.102ZM65.0041 336.09C65.0041 334.378 65.3919 333.013 66.1653 331.989C66.9408 330.97 68.1292 330.459 69.7365 330.459C71.077 330.459 72.1527 330.759 72.9616 331.368C73.7684 331.972 74.1749 332.833 74.1749 333.951V342.167C74.1749 342.659 74.1041 343.111 73.9623 343.53C73.8226 343.949 73.585 344.358 73.2535 344.756C72.922 345.159 72.4217 345.471 71.7545 345.698C71.0853 345.926 70.2744 346.038 69.3133 346.038C68.2021 346.038 67.1118 345.882 66.0361 345.573V343.649C67.0805 343.96 68.1146 344.114 69.1403 344.114C69.8491 344.114 70.4245 344.052 70.8685 343.924C71.3126 343.797 71.619 343.618 71.7879 343.384C71.9588 343.151 72.061 342.953 72.0985 342.79C72.134 342.63 72.1527 342.415 72.1527 342.148V341.177C71.4022 341.383 70.6559 341.487 69.92 341.487C68.3439 341.487 67.1306 341.022 66.28 340.095C65.4294 339.167 65.0041 337.833 65.0041 336.09Z" fill="black"/>
<path d="M79.2096 330.652H81.2339V341.703H79.2096V330.652ZM79.145 326.804H81.2943V328.943H79.145V326.804Z" fill="black"/>
<path d="M85.4899 332.383V330.652H87.4162V327.377H89.4384V330.652H92.3779V332.383H89.4384V338.768C89.4384 339.629 89.9804 340.061 91.0708 340.061H91.0916C91.5961 340.061 92.0256 339.952 92.3779 339.736V341.568C91.8734 341.775 91.3668 341.877 90.8644 341.877H90.8102C90.5433 341.877 90.2577 341.843 89.9575 341.779C89.6531 341.714 89.2904 341.587 88.8693 341.395C88.4481 341.203 88.1 340.874 87.8248 340.403C87.5517 339.932 87.4162 339.348 87.4162 338.649V332.383H85.4899Z" fill="black"/>
<path d="M98.2263 338.189C98.2263 339.436 99.1102 340.059 100.88 340.059H100.911C102.581 340.059 103.415 339.461 103.415 338.264V336.48C102.884 336.394 102.244 336.346 101.495 336.34C101.201 336.34 100.891 336.367 100.567 336.419C100.244 336.475 99.8962 336.559 99.5209 336.671C99.1457 336.788 98.8371 336.978 98.5932 337.243C98.3493 337.507 98.2263 337.822 98.2263 338.189ZM96.2041 338.21C96.2041 337.118 96.6648 336.265 97.5884 335.65C98.514 335.035 99.7857 334.728 101.408 334.728C102.098 334.728 102.769 334.772 103.415 334.858C103.374 333.928 103.119 333.263 102.654 332.858C102.189 332.454 101.431 332.252 100.374 332.252C99.4146 332.252 98.3931 332.435 97.3132 332.804V331.074C98.3576 330.678 99.473 330.48 100.653 330.48C102.194 330.48 103.384 330.878 104.222 331.674C105.06 332.471 105.479 333.615 105.479 335.106V338.298C105.479 338.535 105.458 338.771 105.41 339.006C105.364 339.24 105.25 339.54 105.073 339.907C104.895 340.276 104.656 340.595 104.351 340.87C104.049 341.143 103.592 341.379 102.984 341.579C102.377 341.777 101.674 341.877 100.88 341.877C100.065 341.877 99.35 341.773 98.7371 341.566C98.1241 341.36 97.6613 341.12 97.3507 340.845C97.0421 340.572 96.7941 340.245 96.6106 339.869C96.4271 339.494 96.3125 339.184 96.2708 338.935C96.2249 338.692 96.2041 338.45 96.2041 338.21Z" fill="black"/>
<path d="M110.279 326.445H112.301V341.701H110.279V326.445Z" fill="black"/>
<path d="M127.661 341.703V331.561C129.137 330.825 130.666 330.458 132.25 330.458C133.449 330.458 134.433 330.735 135.204 331.292C136.595 330.735 137.948 330.458 139.257 330.458C140.654 330.458 141.742 330.821 142.524 331.55C143.305 332.278 143.695 333.295 143.695 334.6V341.703H141.675V334.459C141.675 333.825 141.517 333.314 141.208 332.922C140.897 332.534 140.291 332.34 139.388 332.34C138.412 332.34 137.424 332.545 136.419 332.955C136.592 333.424 136.678 333.95 136.678 334.536V341.703H134.656V334.479C134.656 333.833 134.485 333.32 134.141 332.945C133.799 332.57 133.117 332.382 132.1 332.382C131.312 332.382 130.507 332.495 129.684 332.718V341.703H127.661Z" fill="black"/>
<path d="M150.075 338.189C150.075 339.436 150.959 340.059 152.729 340.059H152.761C154.43 340.059 155.264 339.461 155.264 338.264V336.48C154.733 336.394 154.093 336.346 153.344 336.34C153.05 336.34 152.74 336.367 152.417 336.419C152.093 336.475 151.745 336.559 151.37 336.671C150.995 336.788 150.686 336.978 150.442 337.243C150.198 337.507 150.075 337.822 150.075 338.189ZM148.053 338.21C148.053 337.118 148.514 336.265 149.437 335.65C150.363 335.035 151.635 334.728 153.257 334.728C153.947 334.728 154.618 334.772 155.264 334.858C155.223 333.928 154.968 333.263 154.503 332.858C154.039 332.454 153.28 332.252 152.223 332.252C151.264 332.252 150.242 332.435 149.162 332.804V331.074C150.207 330.678 151.322 330.48 152.502 330.48C154.043 330.48 155.233 330.878 156.071 331.674C156.909 332.471 157.328 333.615 157.328 335.106V338.298C157.328 338.535 157.307 338.771 157.259 339.006C157.214 339.24 157.099 339.54 156.922 339.907C156.745 340.276 156.505 340.595 156.2 340.87C155.898 341.143 155.442 341.379 154.833 341.579C154.226 341.777 153.524 341.877 152.729 341.877C151.914 341.877 151.199 341.773 150.586 341.566C149.973 341.36 149.51 341.12 149.2 340.845C148.891 340.572 148.643 340.245 148.46 339.869C148.276 339.494 148.162 339.184 148.12 338.935C148.074 338.692 148.053 338.45 148.053 338.21Z" fill="black"/>
<path d="M161.924 341.703V331.584C163.769 330.848 165.562 330.479 167.307 330.479V332.34C166.208 332.355 165.089 332.509 163.947 332.803V341.703H161.924Z" fill="black"/>
<path d="M171.414 341.703V326.447H173.438V335.28L178.216 330.652H180.962L176.161 335.259L181.6 341.703H178.908L174.81 336.566L173.438 337.896V341.703H171.414Z" fill="black"/>
<path d="M186.559 335.508H192.237C192.206 335.139 192.144 334.789 192.048 334.453C191.95 334.117 191.802 333.777 191.604 333.431C191.406 333.085 191.12 332.81 190.745 332.604C190.37 332.399 189.921 332.295 189.402 332.295C188.472 332.295 187.791 332.535 187.355 333.016C186.919 333.494 186.652 334.326 186.559 335.508ZM184.526 336.308C184.526 332.424 186.152 330.479 189.402 330.479H189.425C190.903 330.479 192.081 330.961 192.965 331.926C193.849 332.894 194.291 334.186 194.291 335.808C194.291 336.333 194.268 336.84 194.226 337.324H186.592C186.838 339.219 187.876 340.167 189.707 340.167C191.199 340.167 192.471 339.892 193.524 339.335V341.178C192.383 341.658 191.097 341.895 189.663 341.895H189.598C188.948 341.895 188.349 341.814 187.803 341.654C187.255 341.491 186.721 341.222 186.204 340.847C185.685 340.472 185.276 339.894 184.976 339.119C184.678 338.343 184.526 337.405 184.526 336.308Z" fill="black"/>
<path d="M197.316 332.383V330.652H199.243V327.377H201.265V330.652H204.204V332.383H201.265V338.768C201.265 339.629 201.807 340.061 202.897 340.061H202.918C203.423 340.061 203.852 339.952 204.204 339.736V341.568C203.7 341.775 203.193 341.877 202.691 341.877H202.637C202.37 341.877 202.084 341.843 201.784 341.779C201.48 341.714 201.117 341.587 200.696 341.395C200.275 341.203 199.926 340.874 199.651 340.403C199.378 339.932 199.243 339.348 199.243 338.649V332.383H197.316Z" fill="black"/>
<path d="M208.708 330.652H210.733V341.703H208.708V330.652ZM208.646 326.804H210.795V328.943H208.646V326.804Z" fill="black"/>
<path d="M216.114 341.703V331.59C217.646 330.835 219.216 330.458 220.823 330.458C222.224 330.458 223.319 330.821 224.113 331.55C224.907 332.278 225.303 333.287 225.303 334.577V341.703H223.239V334.421C223.239 333.768 223.073 333.256 222.741 332.882C222.41 332.505 221.74 332.317 220.738 332.317C219.833 332.317 218.966 332.453 218.136 332.718V341.703H216.114Z" fill="black"/>
<path d="M231.996 336.102C231.996 337.535 232.252 338.491 232.765 338.961C233.278 339.434 233.987 339.669 234.889 339.669C235.686 339.669 236.428 339.53 237.122 339.248V333.82C237.122 333.655 237.106 333.515 237.078 333.398C237.049 333.284 236.968 333.121 236.834 332.913C236.701 332.702 236.453 332.546 236.092 332.435C235.732 332.327 235.267 332.275 234.706 332.275C234.337 332.275 234.016 332.319 233.741 332.406C233.466 332.492 233.184 332.658 232.896 332.902C232.607 333.146 232.386 333.538 232.229 334.074C232.073 334.612 231.996 335.287 231.996 336.102ZM229.974 336.09C229.974 334.378 230.361 333.013 231.135 331.989C231.91 330.97 233.099 330.459 234.706 330.459C236.046 330.459 237.122 330.759 237.931 331.368C238.738 331.972 239.144 332.833 239.144 333.951V342.167C239.144 342.659 239.074 343.111 238.932 343.53C238.792 343.949 238.554 344.358 238.223 344.756C237.891 345.159 237.391 345.471 236.724 345.698C236.055 345.926 235.244 346.038 234.283 346.038C233.172 346.038 232.081 345.882 231.006 345.573V343.649C232.05 343.96 233.084 344.114 234.11 344.114C234.819 344.114 235.394 344.052 235.838 343.924C236.282 343.797 236.588 343.618 236.757 343.384C236.928 343.151 237.03 342.953 237.068 342.79C237.103 342.63 237.122 342.415 237.122 342.148V341.177C236.372 341.383 235.625 341.487 234.889 341.487C233.313 341.487 232.1 341.022 231.249 340.095C230.399 339.167 229.974 337.833 229.974 336.09Z" fill="black"/>
<path d="M224.931 43.9967C230.602 29.3304 236.27 14.6662 241.941 0C236.848 5.87692 231.75 11.7559 226.655 17.6329C213.788 32.4805 200.921 47.326 188.058 62.1715C182.411 68.6822 176.767 75.195 171.122 81.7078C167.127 86.3172 160.938 91.3727 160.569 97.6645C159.72 112.21 157.133 126.611 156.018 141.134C155.601 144.953 155.113 148.772 154.767 152.6C154.202 158.865 149.59 161.779 145.544 166.147L142.5 176.491L139.458 166.147C135.41 161.779 130.798 158.865 130.235 152.6C129.889 148.772 129.401 144.953 128.985 141.134C127.867 126.611 125.282 112.21 124.431 97.6645C124.065 91.3727 117.873 86.3172 113.878 81.7078C108.233 75.195 102.589 68.6822 96.946 62.1715L58.3447 17.6329C53.2496 11.7559 48.1545 5.87692 43.0593 0C48.7298 14.6662 54.4004 29.3304 60.0688 43.9967C64.1591 54.5726 70.5426 64.1103 78.7628 71.924L113.937 105.357L69.2042 67.6211C72.6649 76.5751 76.1256 85.527 79.5863 94.479C81.2979 98.9028 84.1665 102.785 87.8961 105.718L116.378 128.129L83.9747 105.828L92.3095 127.387C93.3894 130.178 95.3449 132.547 97.8842 134.129L121.125 148.637L95.1782 134.811C97.5569 140.961 99.9335 147.109 102.31 153.257C103.2 155.56 104.914 157.449 107.12 158.558L123.583 166.843L104.489 158.89C106.453 163.972 108.418 169.053 110.382 174.137C112.859 180.542 122.138 196.536 118.826 202.94C113.034 214.14 107.293 225.364 101.549 236.59C100.521 238.6 101.981 240.987 104.238 240.987C104.977 240.987 105.689 240.716 106.242 240.228C111.235 235.809 116.228 231.389 121.223 226.967C124.834 223.769 128.445 220.573 132.053 217.377C135.933 213.944 137.761 213.675 142.5 213.493C147.239 213.675 149.067 213.944 152.947 217.377C156.557 220.573 160.168 223.769 163.779 226.967C168.774 231.389 173.765 235.809 178.76 240.228C179.313 240.716 180.023 240.987 180.761 240.987C183.019 240.987 184.481 238.6 183.453 236.59C177.709 225.364 171.968 214.14 166.174 202.94C162.864 196.536 172.143 180.542 174.618 174.137C176.584 169.053 178.547 163.972 180.513 158.89L161.419 166.843L177.882 158.558C180.086 157.449 181.802 155.56 182.69 153.257C185.069 147.109 187.445 140.961 189.822 134.811L163.877 148.637L187.118 134.129C189.657 132.547 191.613 130.178 192.693 127.387L201.025 105.828L168.624 128.129L197.106 105.718C200.833 102.787 203.702 98.9049 205.416 94.4811C208.876 85.527 212.337 76.5751 215.798 67.6211L171.063 105.357L206.237 71.924C214.459 64.1124 220.843 54.5726 224.931 43.9967Z" fill="black"/>
<path d="M97.525 245.894C97.6876 245.894 97.844 245.913 98.0024 245.927L100.398 241.935C100.606 241.587 100.982 241.374 101.386 241.374C102.287 241.374 102.839 242.36 102.368 243.13L100.212 246.647C100.994 247.124 101.642 247.802 102.089 248.608C100.854 247.916 99.2637 247.499 97.525 247.499C95.7863 247.499 94.1956 247.916 92.9615 248.608C93.8558 246.997 95.5528 245.894 97.525 245.894Z" fill="black"/>
<path d="M187.169 245.894C187.007 245.894 186.85 245.913 186.692 245.927L184.297 241.935C184.086 241.587 183.713 241.374 183.306 241.374C182.408 241.374 181.855 242.36 182.327 243.13L184.482 246.647C183.7 247.124 183.052 247.802 182.606 248.608C183.838 247.916 185.429 247.499 187.169 247.499C188.908 247.499 190.499 247.916 191.731 248.608C190.839 246.997 189.14 245.894 187.169 245.894Z" fill="black"/>
<path d="M24.4813 317.026V293.71C24.4813 291.379 23.7495 289.507 22.2902 288.094C20.8309 286.682 18.9212 285.974 16.5696 285.974C15.1082 285.974 13.6364 286.37 12.152 287.16C10.6698 287.948 9.60863 288.848 8.97278 289.862V317.026H0V265.099L8.97278 262.979V281.596C11.2577 279.523 14.4015 278.487 18.4042 278.487C23.1387 278.487 26.812 279.801 29.4263 282.425C32.0385 285.052 33.3477 288.813 33.3477 293.71V317.026H24.4813Z" fill="black"/>
<path d="M63.0909 299.222C61.5815 298.918 60.4516 298.761 59.699 298.761C52.7276 298.761 49.2419 301.048 49.2419 305.616C49.2419 309.006 51.2099 310.703 55.1417 310.703C60.4412 310.703 63.0909 308.053 63.0909 302.754V299.222ZM63.9394 313.246C63.1367 314.564 61.742 315.644 59.7532 316.478C57.7622 317.314 55.6837 317.733 53.5177 317.733C49.4441 317.733 46.2398 316.715 43.9091 314.676C41.5783 312.642 40.4129 309.748 40.4129 306.004C40.4129 301.624 42.0536 298.199 45.3392 295.724C48.6248 293.254 53.2925 292.015 59.3467 292.015C60.3828 292.015 61.6065 292.192 63.02 292.547C63.02 288.094 60.2056 285.869 54.5767 285.869C51.2557 285.869 48.4788 286.422 46.2398 287.531L44.3323 280.676C47.3697 279.217 50.9847 278.487 55.1771 278.487C60.9477 278.487 65.1756 279.801 67.8587 282.425C70.5439 285.052 71.8865 290.026 71.8865 297.35V305.439C71.8865 310.478 72.8996 313.647 74.9239 314.941C74.1943 316.213 73.3812 316.995 72.4869 317.291C71.5925 317.587 70.5668 317.733 69.4139 317.733C68.1422 317.733 66.9998 317.259 65.9866 316.319C64.9734 315.377 64.2917 314.353 63.9394 313.246Z" fill="black"/>
<path d="M118.585 317.733H115.371L104.987 294.49L94.6357 317.733H91.3856L77.1154 279.194H86.4051L93.9999 301.765L103.254 279.194H106.435L116.007 301.907L124.202 279.194H132.893L118.585 317.733Z" fill="black"/>
<path d="M162.317 317.026L151.189 299.893L146.951 304.38V317.026H138.12V265.099L146.951 262.979V293.71L159.563 279.194H170.193L157.408 293.533L172.808 317.026H162.317Z" fill="black"/>
<path d="M175.424 314.589L178.568 307.559C181.203 309.657 184.184 310.703 187.505 310.703C190.941 310.703 192.661 309.479 192.661 307.03C192.661 305.593 192.144 304.416 191.106 303.496C190.07 302.577 188.058 301.495 185.066 300.246C178.543 297.538 175.283 293.748 175.283 288.872C175.283 285.601 176.529 283.049 179.027 281.225C181.524 279.398 184.714 278.487 188.598 278.487C192.532 278.487 196.228 279.369 199.693 281.135L197.147 287.99C195.217 286.341 192.532 285.517 189.096 285.517C186.009 285.517 184.466 286.741 184.466 289.188C184.466 290.156 184.972 291.025 185.984 291.803C186.999 292.58 189.165 293.623 192.486 294.93C195.805 296.237 198.196 297.821 199.655 299.681C201.117 301.541 201.846 303.79 201.846 306.429C201.846 309.938 200.546 312.698 197.944 314.712C195.34 316.724 191.8 317.733 187.328 317.733C184.808 317.733 182.788 317.524 181.27 317.114C179.75 316.703 177.803 315.859 175.424 314.589Z" fill="black"/>
<path d="M215.975 294.171H234.557C233.944 288.638 230.881 285.87 225.373 285.87C220.332 285.87 217.199 288.638 215.975 294.171ZM242.683 300.813H215.658C215.821 303.826 216.859 306.171 218.767 307.843C220.674 309.513 223.239 310.351 226.466 310.351C230.493 310.351 233.556 309.302 235.651 307.205L239.076 313.951C235.97 316.472 231.329 317.733 225.161 317.733C219.39 317.733 214.827 316.042 211.472 312.663C208.116 309.283 206.437 304.568 206.437 298.516C206.437 292.56 208.28 287.729 211.966 284.033C215.652 280.335 220.074 278.488 225.229 278.488C230.717 278.488 235.122 280.124 238.441 283.397C241.762 286.67 243.423 290.838 243.423 295.901C243.423 296.986 243.175 298.622 242.683 300.813Z" fill="black"/>
<path d="M257.554 294.171H276.134C275.521 288.638 272.46 285.87 266.95 285.87C261.909 285.87 258.778 288.638 257.554 294.171ZM284.26 300.813H257.235C257.4 303.826 258.436 306.171 260.344 307.843C262.251 309.513 264.815 310.351 268.045 310.351C272.07 310.351 275.133 309.302 277.23 307.205L280.655 313.951C277.547 316.472 272.906 317.733 266.738 317.733C260.967 317.733 256.406 316.042 253.049 312.663C249.693 309.283 248.016 304.568 248.016 298.516C248.016 292.56 249.859 287.729 253.543 284.033C257.229 280.335 261.651 278.488 266.806 278.488C272.295 278.488 276.698 280.124 280.017 283.397C283.338 286.67 285 290.838 285 295.901C285 296.986 284.754 298.622 284.26 300.813Z" fill="black"/>
</svg>
