<?xml version="1.0" encoding="UTF-8"?>
<svg id="Layer_1" data-name="Layer 1" xmlns="http://www.w3.org/2000/svg" viewBox="0 0 1080 1080">
  <defs>
    <style>
      .cls-1 {
        fill: none;
      }
    </style>
  </defs>
  <g>
    <polygon points="268.84 520.82 266.6 520.29 269.47 523.17 268.84 520.82"/>
    <polygon points="276.04 520.94 275.52 523.17 278.39 520.3 276.04 520.94"/>
    <path d="M341.61,425.33c4.75-12.29,9.51-24.59,14.26-36.89l-12.82,14.79c-10.79,12.44-21.57,24.89-32.36,37.34-4.73,5.46-9.46,10.92-14.2,16.38-3.35,3.87-8.54,8.1-8.85,13.38-.71,12.19-2.88,24.27-3.82,36.44-.35,3.2-.76,6.41-1.05,9.62-.47,5.25-4.34,7.7-7.73,11.36l-2.55,8.67-2.55-8.67c-3.39-3.66-7.26-6.1-7.73-11.36-.29-3.21-.7-6.41-1.05-9.62-.94-12.18-3.1-24.25-3.82-36.44-.31-5.28-5.5-9.51-8.85-13.38-4.73-5.46-9.46-10.92-14.2-16.38-10.79-12.45-21.58-24.89-32.36-37.34l-12.81-14.79c4.75,12.3,9.51,24.59,14.26,36.89,3.43,8.87,8.78,16.87,15.68,23.42l29.49,28.02-37.5-31.64c2.9,7.51,5.8,15.01,8.7,22.52,1.44,3.71,3.84,6.96,6.97,9.42l23.88,18.79-27.17-18.7,6.99,18.07c.9,2.34,2.55,4.33,4.67,5.65l19.48,12.16-21.75-11.59c1.99,5.15,3.99,10.31,5.98,15.46.75,1.93,2.18,3.51,4.03,4.44l13.8,6.95-16.01-6.67,4.94,12.78c2.08,5.37,9.85,18.78,7.08,24.15-4.86,9.39-9.67,18.8-14.48,28.21-.87,1.68.36,3.68,2.25,3.68.62,0,1.22-.23,1.68-.63,4.19-3.71,8.37-7.42,12.56-11.12,3.03-2.68,6.05-5.36,9.08-8.04,3.25-2.88,4.79-3.11,8.76-3.26,3.97.15,5.51.38,8.76,3.26l9.08,8.04c4.19,3.71,8.37,7.42,12.56,11.12.47.41,1.06.63,1.68.63,1.9,0,3.12-2,2.26-3.68-4.82-9.41-9.63-18.82-14.48-28.21-2.78-5.37,5-18.78,7.08-24.15,1.65-4.26,3.3-8.52,4.94-12.78l-16.01,6.67,13.8-6.95c1.85-.93,3.28-2.51,4.03-4.44,1.99-5.15,3.99-10.31,5.98-15.46l-21.75,11.59,19.49-12.16c2.13-1.33,3.77-3.31,4.67-5.65l6.99-18.07-27.17,18.7,23.88-18.79c3.13-2.46,5.53-5.71,6.97-9.42,2.9-7.51,5.8-15.01,8.7-22.52l-37.5,31.64,29.48-28.02c6.9-6.56,12.25-14.55,15.68-23.42"/>
    <path d="M234.79,594.59c.13,0,.27.02.4.03l2.01-3.35c.17-.29.49-.47.83-.47.76,0,1.22.83.83,1.47l-1.81,2.95c.65.4,1.2.97,1.57,1.64-1.04-.58-2.37-.93-3.83-.93s-2.79.35-3.83.93c.75-1.35,2.17-2.28,3.83-2.28"/>
    <path d="M309.95,594.59c-.13,0-.27.02-.4.03l-2.01-3.35c-.17-.29-.49-.47-.83-.47-.75,0-1.22.83-.82,1.47l1.81,2.95c-.66.4-1.2.97-1.57,1.64,1.04-.58,2.37-.93,3.83-.93s2.79.35,3.83.93c-.75-1.35-2.17-2.28-3.83-2.28"/>
    <path d="M432.78,514.23v-37.84c0-3.78-1.19-6.82-3.55-9.11-2.37-2.3-5.47-3.44-9.29-3.44-2.37,0-4.76.64-7.17,1.92-2.41,1.28-4.13,2.75-5.16,4.39v44.09h-14.56v-84.28l14.56-3.44v30.21c3.71-3.36,8.81-5.04,15.31-5.04,7.68,0,13.64,2.13,17.88,6.39,4.24,4.26,6.37,10.37,6.37,18.31v37.84h-14.39Z"/>
    <path d="M496.82,508.1c-1.3,2.14-3.57,3.89-6.8,5.25-3.23,1.36-6.6,2.03-10.12,2.03-6.61,0-11.81-1.65-15.6-4.96-3.78-3.31-5.67-8-5.67-14.08,0-7.11,2.67-12.67,8-16.68,5.33-4.01,12.91-6.02,22.73-6.02,1.68,0,3.67.29,5.96.86,0-7.22-4.57-10.84-13.7-10.84-5.39,0-9.9.9-13.53,2.69l-3.1-11.12c4.93-2.37,10.8-3.55,17.6-3.55,9.36,0,16.22,2.13,20.58,6.39,4.36,4.26,6.54,12.34,6.54,24.22v13.13c0,8.18,1.64,13.32,4.93,15.42-1.18,2.07-2.5,3.33-3.95,3.81-1.45.48-3.11.72-4.99.72-2.07,0-3.92-.76-5.56-2.3-1.64-1.52-2.75-3.19-3.32-4.99M495.45,485.34c-2.44-.5-4.28-.75-5.51-.75-11.31,0-16.97,3.71-16.97,11.12,0,5.5,3.19,8.26,9.57,8.26,8.6,0,12.9-4.3,12.9-12.9v-5.73Z"/>
    <polygon points="585.51 515.38 580.3 515.38 563.44 477.65 546.64 515.38 541.37 515.38 518.21 452.83 533.28 452.83 545.61 489.46 560.63 452.83 565.79 452.83 581.33 489.69 594.63 452.83 608.73 452.83 585.51 515.38"/>
    <polygon points="656.49 514.23 638.43 486.43 631.55 493.7 631.55 514.23 617.21 514.23 617.21 429.96 631.55 426.51 631.55 476.39 652.02 452.83 669.27 452.83 648.52 476.11 673.52 514.23 656.49 514.23"/>
    <path d="M677.76,510.27l5.1-11.41c4.28,3.4,9.12,5.11,14.51,5.11s8.37-1.99,8.37-5.96c0-2.33-.84-4.24-2.52-5.74-1.68-1.49-4.95-3.25-9.81-5.27-10.58-4.4-15.88-10.55-15.88-18.46,0-5.31,2.03-9.45,6.07-12.41,4.06-2.96,9.24-4.44,15.54-4.44s12.39,1.43,18,4.3l-4.13,11.13c-3.13-2.67-7.49-4.01-13.07-4.01-5.01,0-7.51,1.99-7.51,5.96,0,1.57.82,2.98,2.47,4.24,1.64,1.26,5.16,2.95,10.55,5.07,5.39,2.12,9.27,4.69,11.64,7.71,2.37,3.02,3.55,6.67,3.55,10.95,0,5.7-2.11,10.17-6.34,13.44-4.22,3.27-9.97,4.9-17.22,4.9-4.1,0-7.37-.33-9.84-1-2.47-.67-5.63-2.03-9.49-4.1"/>
    <path d="M786.92,487.92h-43.86c.27,4.89,1.95,8.69,5.04,11.41,3.1,2.71,7.26,4.07,12.5,4.07,6.53,0,11.5-1.7,14.9-5.1l5.56,10.96c-5.04,4.09-12.57,6.13-22.58,6.13-9.37,0-16.77-2.74-22.22-8.23-5.45-5.48-8.17-13.14-8.17-22.96s2.99-17.5,8.97-23.5c5.98-6,13.16-9,21.53-9,8.9,0,16.05,2.66,21.44,7.97,5.39,5.32,8.09,12.08,8.09,20.3,0,1.76-.4,4.41-1.2,7.97M743.57,477.14h30.16c-.99-8.98-5.96-13.47-14.91-13.47-8.18,0-13.26,4.49-15.25,13.47"/>
    <path d="M854.4,487.92h-43.86c.27,4.89,1.95,8.69,5.04,11.41,3.1,2.71,7.26,4.07,12.5,4.07,6.53,0,11.5-1.7,14.9-5.1l5.56,10.96c-5.04,4.09-12.57,6.13-22.58,6.13-9.37,0-16.77-2.74-22.22-8.23-5.45-5.48-8.17-13.14-8.17-22.96s2.99-17.5,8.97-23.5c5.98-6,13.16-9,21.53-9,8.9,0,16.05,2.66,21.44,7.97,5.39,5.32,8.09,12.08,8.09,20.3,0,1.76-.4,4.41-1.2,7.97M811.05,477.14h30.16c-.99-8.98-5.96-13.47-14.91-13.47-8.18,0-13.26,4.49-15.25,13.47"/>
    <path d="M436.13,552.62l.92-2.33c.48.35,1.06.63,1.77.87.71.23,1.34.35,1.9.35.99,0,1.78-.27,2.38-.81.6-.54.9-1.23.9-2.07,0-.62-.16-1.21-.5-1.74-.33-.53-1.17-1.12-2.51-1.75l-1.5-.7c-1.27-.59-2.15-1.29-2.66-2.1-.5-.81-.75-1.79-.75-2.92,0-1.39.49-2.53,1.47-3.45.98-.91,2.23-1.37,3.78-1.37,2.05,0,3.48.33,4.28,1l-.75,2.2c-.34-.25-.85-.48-1.55-.71-.69-.23-1.33-.34-1.92-.34-.86,0-1.54.25-2.03.74s-.74,1.12-.74,1.89c0,.47.09.9.27,1.29.18.39.43.71.74.98.32.26.96.63,1.95,1.1l1.52.72c1.27.6,2.15,1.31,2.67,2.15.52.83.77,1.89.77,3.17,0,1.39-.56,2.58-1.68,3.55s-2.62,1.46-4.49,1.46c-1.65,0-3.05-.39-4.22-1.17"/>
    <path d="M448.37,546.65c0-2.09.56-3.78,1.69-5.07,1.13-1.29,2.61-1.94,4.46-1.94,1.94,0,3.45.62,4.52,1.86,1.08,1.24,1.61,2.95,1.61,5.15s-.55,3.91-1.65,5.18c-1.1,1.26-2.59,1.89-4.49,1.89s-3.44-.64-4.52-1.91c-1.08-1.28-1.62-2.99-1.62-5.16M450.91,546.65c0,3.41,1.2,5.11,3.61,5.11,1.12,0,2-.46,2.64-1.37.64-.91.96-2.16.96-3.74,0-3.36-1.2-5.04-3.6-5.04-1.1,0-1.98.45-2.63,1.35-.65.89-.98,2.13-.98,3.7"/>
    <path d="M473.43,541l-1.19,1.7c-.24-.24-.68-.48-1.3-.7-.62-.22-1.23-.33-1.83-.33-1.31,0-2.35.46-3.11,1.38-.77.92-1.16,2.17-1.16,3.77s.39,2.8,1.18,3.63c.79.83,1.88,1.25,3.27,1.25,1.08,0,2.17-.42,3.27-1.25l.95,2.03c-1.29.84-2.89,1.25-4.8,1.25s-3.38-.62-4.59-1.86c-1.21-1.24-1.81-2.92-1.81-5.05s.63-3.9,1.88-5.21c1.26-1.31,2.97-1.97,5.15-1.97.7,0,1.46.15,2.28.44.82.3,1.42.6,1.81.92"/>
    <path d="M477.2,553.47v-11.55h-1.86v-2.03h4.27v13.57h-2.41ZM478.52,534.77c.41,0,.77.14,1.06.43.29.3.44.64.44,1.05s-.15.77-.44,1.06c-.29.29-.64.44-1.06.44s-.76-.15-1.04-.44c-.29-.29-.44-.64-.44-1.06s.15-.76.43-1.05c.29-.29.64-.43,1.05-.43"/>
    <path d="M491.11,551.92c-.96,1.21-2.43,1.81-4.42,1.81-1.07,0-1.99-.39-2.77-1.16-.78-.77-1.17-1.74-1.17-2.88,0-1.38.6-2.54,1.8-3.49s2.74-1.43,4.61-1.43c.51,0,1.08.11,1.72.33,0-2.2-.98-3.29-2.94-3.29-1.5,0-2.66.4-3.47,1.21l-1.02-2.01c.46-.37,1.09-.69,1.9-.96.8-.26,1.58-.4,2.31-.4,1.97,0,3.4.45,4.29,1.35.89.89,1.34,2.32,1.34,4.27v4.87c0,1.19.36,1.98,1.06,2.38v1.2c-.98,0-1.71-.14-2.19-.42-.49-.28-.84-.74-1.05-1.38M490.88,546.8c-.76-.17-1.29-.25-1.6-.25-1.22,0-2.21.31-2.98.94s-1.15,1.37-1.15,2.22c0,1.41.83,2.11,2.5,2.11,1.21,0,2.29-.58,3.23-1.74v-3.28Z"/>
    <path d="M497.27,549.63v-15.3h2.41v14.9c0,.72.21,1.3.63,1.71.42.42.96.63,1.64.63v2.15c-3.12,0-4.68-1.36-4.68-4.09"/>
    <polygon points="526.72 553.47 524.52 541.55 520.46 553.73 519.83 553.73 515.66 541.55 513.5 553.47 511.1 553.47 514.57 534.91 515.72 534.91 520.15 548.45 524.23 534.91 525.37 534.91 529.13 553.47 526.72 553.47"/>
    <path d="M542.4,546.92h-9.78c0,1.59.44,2.81,1.31,3.66.77.74,1.76,1.12,2.96,1.12,1.38,0,2.53-.4,3.45-1.2l1.01,1.74c-.37.37-.94.69-1.71.96-.96.36-2.03.53-3.22.53-1.71,0-3.16-.58-4.35-1.74-1.32-1.28-1.99-2.99-1.99-5.15s.68-4.03,2.04-5.38c1.22-1.21,2.66-1.81,4.32-1.81,1.94,0,3.45.55,4.55,1.64,1.07,1.05,1.6,2.44,1.6,4.17,0,.53-.06,1.02-.19,1.47M536.56,541.67c-1.07,0-1.97.35-2.7,1.04-.69.66-1.08,1.48-1.18,2.46h7.52c0-.97-.31-1.78-.92-2.43-.67-.71-1.57-1.07-2.72-1.07"/>
    <path d="M553.73,553.46v-1c-.84.84-2.05,1.25-3.65,1.25-1.7,0-3.08-.61-4.13-1.82-1.06-1.22-1.59-2.84-1.59-4.86s.61-3.78,1.83-5.22c1.22-1.44,2.67-2.16,4.35-2.16,1.4,0,2.47.33,3.19.99v-6.3h2.41v19.13h-2.41ZM553.73,543.04c-.61-.91-1.44-1.37-2.5-1.37-1.29,0-2.34.49-3.14,1.45-.8.96-1.2,2.19-1.2,3.68,0,3.27,1.49,4.9,4.47,4.9.38,0,.84-.12,1.37-.36.53-.25.87-.5,1-.77v-7.53Z"/>
    <path d="M560.75,553.47v-11.55h-1.86v-2.03h4.27v13.57h-2.41ZM562.07,534.77c.41,0,.77.14,1.06.43.29.3.44.64.44,1.05s-.15.77-.44,1.06c-.29.29-.64.44-1.06.44s-.76-.15-1.04-.44c-.29-.29-.44-.64-.44-1.06s.15-.76.43-1.05c.29-.29.64-.43,1.05-.43"/>
    <path d="M574.65,551.92c-.96,1.21-2.43,1.81-4.42,1.81-1.07,0-1.99-.39-2.77-1.16-.78-.77-1.17-1.74-1.17-2.88,0-1.38.6-2.54,1.8-3.49s2.74-1.43,4.61-1.43c.51,0,1.08.11,1.72.33,0-2.2-.98-3.29-2.94-3.29-1.5,0-2.66.4-3.47,1.21l-1.02-2.01c.46-.37,1.09-.69,1.9-.96.8-.26,1.58-.4,2.31-.4,1.97,0,3.4.45,4.29,1.35.89.89,1.34,2.32,1.34,4.27v4.87c0,1.19.36,1.98,1.06,2.38v1.2c-.98,0-1.71-.14-2.19-.42-.49-.28-.84-.74-1.05-1.38M574.43,546.8c-.76-.17-1.29-.25-1.6-.25-1.22,0-2.21.31-2.98.94s-1.15,1.37-1.15,2.22c0,1.41.83,2.11,2.5,2.11,1.21,0,2.29-.58,3.23-1.74v-3.28Z"/>
    <polygon points="602.61 553.47 600.41 541.55 596.35 553.73 595.72 553.73 591.55 541.55 589.4 553.47 586.99 553.47 590.46 534.91 591.61 534.91 596.04 548.45 600.12 534.91 601.26 534.91 605.02 553.47 602.61 553.47"/>
    <path d="M614.53,551.92c-.96,1.21-2.43,1.81-4.42,1.81-1.07,0-1.99-.39-2.77-1.16-.78-.77-1.17-1.74-1.17-2.88,0-1.38.6-2.54,1.8-3.49s2.74-1.43,4.61-1.43c.51,0,1.08.11,1.72.33,0-2.2-.98-3.29-2.94-3.29-1.5,0-2.66.4-3.47,1.21l-1.02-2.01c.46-.37,1.09-.69,1.9-.96.8-.26,1.58-.4,2.31-.4,1.97,0,3.4.45,4.29,1.35.89.89,1.34,2.32,1.34,4.27v4.87c0,1.19.36,1.98,1.06,2.38v1.2c-.98,0-1.71-.14-2.19-.42-.49-.28-.84-.74-1.05-1.38M614.3,546.8c-.76-.17-1.29-.25-1.6-.25-1.22,0-2.21.31-2.98.94s-1.15,1.37-1.15,2.22c0,1.41.83,2.11,2.5,2.11,1.21,0,2.29-.58,3.23-1.74v-3.28Z"/>
    <path d="M627.87,542.22c-.52-.36-1.05-.55-1.59-.55-.85,0-1.6.39-2.23,1.18-.64.79-.96,1.73-.96,2.84v7.78h-2.4v-13.57h2.4v2.17c.88-1.61,2.19-2.42,3.92-2.42.43,0,1.05.08,1.86.23l-1,2.34Z"/>
    <polygon points="639.36 553.47 635.1 546.68 632.99 548.85 632.99 553.47 630.58 553.47 630.58 534.33 632.99 534.33 632.99 546.21 638.19 539.9 641 539.9 636.65 545.06 641.97 553.47 639.36 553.47"/>
    <path d="M655.11,546.92h-9.78c0,1.59.44,2.81,1.31,3.66.77.74,1.76,1.12,2.96,1.12,1.38,0,2.53-.4,3.45-1.2l1.01,1.74c-.37.37-.94.69-1.71.96-.96.36-2.03.53-3.22.53-1.71,0-3.16-.58-4.35-1.74-1.32-1.28-1.99-2.99-1.99-5.15s.68-4.03,2.04-5.38c1.22-1.21,2.66-1.81,4.32-1.81,1.93,0,3.45.55,4.55,1.64,1.07,1.05,1.6,2.44,1.6,4.17,0,.53-.07,1.02-.19,1.47M649.27,541.67c-1.07,0-1.97.35-2.7,1.04-.69.66-1.08,1.48-1.18,2.46h7.52c0-.97-.31-1.78-.92-2.43-.67-.71-1.57-1.07-2.72-1.07"/>
    <path d="M658.7,541.8h-1.57v-1.9h1.57v-2.84l2.41-.92v3.77h3.72v1.9h-3.72v6.74c0,1.14.19,1.95.58,2.43.38.48,1,.72,1.86.72.61,0,1.25-.16,1.91-.47l.36,2.12c-1,.25-2.09.38-3.28.38-1.07,0-1.98-.39-2.72-1.2-.74-.8-1.11-1.81-1.11-3.02v-7.71Z"/>
    <path d="M669.29,553.47v-11.55h-1.86v-2.03h4.27v13.57h-2.41ZM670.61,534.77c.41,0,.77.14,1.06.43.29.3.44.64.44,1.05s-.14.77-.44,1.06c-.29.29-.64.44-1.06.44s-.76-.15-1.05-.44c-.29-.29-.44-.64-.44-1.06s.14-.76.43-1.05.64-.43,1.05-.43"/>
    <path d="M683.88,553.47v-7.9c0-1.44-.22-2.46-.65-3.03-.44-.58-1.16-.87-2.19-.87-.55,0-1.12.17-1.72.5-.6.33-1.06.73-1.38,1.21v10.09h-2.41v-13.57h1.65l.76,1.75c.8-1.34,2.09-2,3.89-2,2.97,0,4.46,1.81,4.46,5.42v8.4h-2.41Z"/>
    <path d="M689.22,557.19l1.3-1.93c1.4.94,2.7,1.41,3.88,1.41,1.09,0,1.95-.19,2.58-.56.63-.38.94-.84.94-1.4,0-1.1-.8-1.64-2.38-1.64-.27,0-.76.07-1.47.2-.71.14-1.26.2-1.66.2-1.92,0-2.89-.72-2.89-2.18,0-.45.23-.85.68-1.22.45-.36,1.01-.62,1.68-.79-1.91-.89-2.86-2.45-2.86-4.66,0-1.42.49-2.6,1.48-3.54.99-.95,2.21-1.42,3.66-1.42,1.33,0,2.38.27,3.13.82l1.2-1.44,1.57,1.48-1.44,1.09c.62.8.92,1.85.92,3.14,0,1.37-.43,2.52-1.28,3.45-.85.93-1.97,1.46-3.36,1.6l-1.99.2c-.24.03-.55.12-.95.27-.4.16-.6.36-.6.61,0,.35.41.52,1.24.52.36,0,.93-.07,1.7-.2.77-.13,1.34-.2,1.71-.2,1.33,0,2.38.32,3.12.96s1.12,1.52,1.12,2.66c0,1.25-.56,2.26-1.68,3.03-1.12.77-2.54,1.15-4.25,1.15-.88,0-1.8-.16-2.78-.47-.97-.31-1.75-.69-2.34-1.14M694.32,541.58c-.84,0-1.52.3-2.05.89-.53.59-.79,1.31-.79,2.16,0,.95.26,1.73.76,2.35.52.62,1.2.93,2.07.93s1.52-.3,2-.91c.48-.6.72-1.4.72-2.38,0-.85-.26-1.56-.78-2.16-.52-.59-1.17-.89-1.95-.89"/>
    <path d="M709.91,552.62l.92-2.33c.48.35,1.06.63,1.77.87.71.23,1.34.35,1.9.35.99,0,1.78-.27,2.38-.81.6-.54.9-1.23.9-2.07,0-.62-.16-1.21-.5-1.74-.34-.53-1.17-1.12-2.52-1.75l-1.49-.7c-1.27-.59-2.15-1.29-2.65-2.1-.51-.81-.76-1.79-.76-2.92,0-1.39.49-2.53,1.47-3.45.98-.91,2.23-1.37,3.78-1.37,2.05,0,3.48.33,4.28,1l-.75,2.2c-.34-.25-.85-.48-1.54-.71-.7-.23-1.34-.34-1.93-.34-.86,0-1.54.25-2.03.74-.49.49-.74,1.12-.74,1.89,0,.47.09.9.27,1.29.18.39.42.71.74.98.32.26.96.63,1.95,1.1l1.52.72c1.27.6,2.15,1.31,2.67,2.15.51.83.76,1.89.76,3.17,0,1.39-.56,2.58-1.68,3.55-1.12.97-2.62,1.46-4.49,1.46-1.65,0-3.05-.39-4.22-1.17"/>
    <path d="M722.15,546.65c0-2.09.56-3.78,1.69-5.07s2.61-1.94,4.46-1.94c1.94,0,3.45.62,4.52,1.86,1.08,1.24,1.61,2.95,1.61,5.15s-.55,3.91-1.64,5.18c-1.1,1.26-2.59,1.89-4.49,1.89s-3.44-.64-4.53-1.91c-1.08-1.28-1.62-2.99-1.62-5.16M724.69,546.65c0,3.41,1.2,5.11,3.61,5.11,1.12,0,2-.46,2.64-1.37.64-.91.96-2.16.96-3.74,0-3.36-1.2-5.04-3.6-5.04-1.1,0-1.98.45-2.63,1.35-.65.89-.98,2.13-.98,3.7"/>
    <path d="M737.16,549.63v-15.3h2.41v14.9c0,.72.21,1.3.63,1.71.42.42.97.63,1.64.63v2.15c-3.12,0-4.68-1.36-4.68-4.09"/>
    <path d="M746.91,539.9v8.66c0,2.1.91,3.14,2.72,3.14.8,0,1.52-.23,2.18-.69.66-.46,1.09-.98,1.31-1.58v-9.53h2.41v13.57h-2.41v-1.87c-.27.53-.81,1.02-1.63,1.46-.81.44-1.61.66-2.39.66-1.48,0-2.62-.43-3.41-1.28-.79-.85-1.19-2.07-1.19-3.64v-8.91h2.41Z"/>
    <path d="M759.67,541.8h-1.57v-1.9h1.57v-2.84l2.41-.92v3.77h3.72v1.9h-3.72v6.74c0,1.14.19,1.95.58,2.43.38.48,1,.72,1.86.72.61,0,1.25-.16,1.91-.47l.36,2.12c-1,.25-2.09.38-3.28.38-1.07,0-1.98-.39-2.72-1.2-.74-.8-1.11-1.81-1.11-3.02v-7.71Z"/>
    <path d="M770.26,553.47v-11.55h-1.86v-2.03h4.27v13.57h-2.41ZM771.58,534.77c.41,0,.77.14,1.06.43.29.3.44.64.44,1.05s-.14.77-.44,1.06c-.29.29-.64.44-1.06.44s-.76-.15-1.05-.44c-.29-.29-.44-.64-.44-1.06s.14-.76.43-1.05.64-.43,1.05-.43"/>
    <path d="M775.61,546.65c0-2.09.56-3.78,1.69-5.07,1.13-1.29,2.61-1.94,4.46-1.94,1.94,0,3.45.62,4.52,1.86,1.08,1.24,1.61,2.95,1.61,5.15s-.55,3.91-1.64,5.18c-1.1,1.26-2.59,1.89-4.49,1.89s-3.44-.64-4.53-1.91c-1.08-1.28-1.62-2.99-1.62-5.16M778.15,546.65c0,3.41,1.2,5.11,3.61,5.11,1.12,0,2-.46,2.64-1.37.64-.91.96-2.16.96-3.74,0-3.36-1.2-5.04-3.6-5.04-1.1,0-1.98.45-2.63,1.35-.65.89-.98,2.13-.98,3.7"/>
    <path d="M798.78,553.47v-7.9c0-1.44-.22-2.46-.65-3.03-.44-.58-1.16-.87-2.19-.87-.55,0-1.12.17-1.72.5-.6.33-1.06.73-1.38,1.21v10.09h-2.41v-13.57h1.65l.76,1.75c.8-1.34,2.09-2,3.89-2,2.97,0,4.46,1.81,4.46,5.42v8.4h-2.41Z"/>
    <path d="M803.73,552.66l.85-2.28c1.34.88,2.43,1.32,3.24,1.32,1.49,0,2.23-.62,2.23-1.87,0-.9-.72-1.67-2.15-2.31-1.11-.51-1.86-.89-2.24-1.15-.38-.26-.72-.56-1-.89-.28-.33-.5-.69-.64-1.06s-.21-.78-.21-1.21c0-1.12.4-1.98,1.22-2.61.81-.62,1.87-.94,3.18-.94.99,0,2.23.31,3.74.94l-.68,2.23c-.96-.76-1.91-1.14-2.87-1.14-.58,0-1.06.14-1.45.41-.39.27-.59.61-.59,1.03,0,.87.5,1.53,1.48,1.97l1.72.79c1.06.48,1.83,1.03,2.31,1.65.48.62.72,1.39.72,2.32,0,1.21-.43,2.17-1.28,2.86-.85.69-2.04,1.03-3.55,1.03-1.43,0-2.77-.36-4.03-1.06"/>
  </g>
  <rect class="cls-1" x="358.45" y="467.53" width="1553.96" height="9576.28"/>
</svg>