<svg width="284" height="392" viewBox="0 0 284 392" fill="none" xmlns="http://www.w3.org/2000/svg">
<g clip-path="url(#clip0_310_709)">
<path d="M144.528 164.184L142.001 163.59L145.245 166.847L144.528 164.184Z" fill="black"/>
<path d="M152.673 164.313L152.08 166.841L155.338 163.596L152.673 164.313Z" fill="black"/>
<mask id="mask0_310_709" style="mask-type:luminance" maskUnits="userSpaceOnUse" x="-138" y="-108" width="573" height="573">
<path d="M-137.233 -107.691H434.579V464.121H-137.233V-107.691Z" fill="white"/>
</mask>
<g mask="url(#mask0_310_709)">
<path d="M226.806 56.2197C232.179 42.319 237.556 28.4163 242.929 14.5156C238.099 20.0869 233.269 25.6592 228.439 31.2315C216.243 45.3038 204.048 59.3742 191.851 73.4465C186.501 79.6192 181.151 85.7929 175.8 91.9666C172.013 96.3352 166.144 101.125 165.796 107.091C164.991 120.877 162.541 134.529 161.481 148.294C161.086 151.914 160.622 155.535 160.296 159.163C159.764 165.102 155.391 167.866 151.552 172.004L148.669 181.81L145.786 172.004C141.948 167.866 137.578 165.102 137.043 159.163C136.716 155.535 136.253 151.914 135.858 148.294C134.799 134.529 132.349 120.877 131.543 107.091C131.195 101.125 125.326 96.3352 121.539 91.9666C116.189 85.7929 110.838 79.6192 105.488 73.4465C93.2915 59.3742 81.0967 45.3038 68.8999 31.2315C64.07 25.6592 59.241 20.0869 54.4111 14.5156C59.7862 28.4163 65.1612 42.319 70.5343 56.2197C74.4103 66.2455 80.4629 75.2878 88.2548 82.6927L121.596 114.382L79.1916 78.6138C82.4719 87.1004 85.755 95.5852 89.0344 104.072C90.6545 108.266 93.3754 111.945 96.9092 114.726L123.907 135.969L93.1943 114.83L101.094 135.265C102.116 137.911 103.971 140.155 106.378 141.657L128.406 155.408L103.814 142.301C106.068 148.129 108.321 153.958 110.574 159.787C111.417 161.968 113.043 163.759 115.133 164.811L130.738 172.663L112.638 165.124L118.225 179.579C120.574 185.65 129.367 200.809 126.229 206.88C120.738 217.496 115.295 228.136 109.853 238.776C108.878 240.682 110.262 242.946 112.401 242.946C113.103 242.946 113.777 242.691 114.301 242.225C119.034 238.035 123.766 233.846 128.5 229.655C131.922 226.625 135.346 223.596 138.768 220.567C142.444 217.311 144.179 217.055 148.669 216.884C153.161 217.055 154.896 217.311 158.571 220.567L168.838 229.655C173.572 233.846 178.306 238.035 183.039 242.225C183.562 242.691 184.237 242.946 184.937 242.946C187.078 242.946 188.462 240.682 187.486 238.776C182.044 228.136 176.601 217.496 171.111 206.88C167.972 200.809 176.766 185.65 179.115 179.579C180.976 174.761 182.838 169.944 184.7 165.124L166.603 172.663L182.207 164.811C184.297 163.759 185.921 161.97 186.767 159.787C189.019 153.958 191.271 148.129 193.526 142.301L168.933 155.408L190.962 141.657C193.368 140.155 195.222 137.911 196.245 135.265L204.146 114.83L173.431 135.969L200.429 114.726C203.964 111.947 206.683 108.266 208.305 104.072C211.585 95.5852 214.866 87.1004 218.148 78.6138L175.746 114.382L209.085 82.6927C216.877 75.2878 222.928 66.2455 226.806 56.2197Z" fill="black"/>
<path d="M106.038 247.596C106.19 247.596 106.34 247.615 106.488 247.629L108.76 243.843C108.958 243.514 109.314 243.311 109.696 243.311C110.55 243.311 111.074 244.248 110.627 244.974L108.583 248.309C109.325 248.762 109.939 249.405 110.363 250.167C109.194 249.513 107.685 249.117 106.038 249.117C104.388 249.117 102.881 249.513 101.712 250.167C102.559 248.642 104.167 247.596 106.038 247.596Z" fill="black"/>
<path d="M191.01 247.596C190.857 247.596 190.707 247.615 190.557 247.629L188.287 243.843C188.09 243.514 187.735 243.311 187.349 243.311C186.497 243.311 185.973 244.248 186.418 244.974L188.463 248.309C187.721 248.762 187.109 249.405 186.686 250.167C187.853 249.513 189.362 249.117 191.01 249.117C192.659 249.117 194.166 249.513 195.335 250.167C194.488 248.642 192.88 247.596 191.01 247.596Z" fill="black"/>
<path d="M36.8027 315.021V292.922C36.8027 290.712 36.1099 288.937 34.7261 287.598C33.3414 286.259 31.5325 285.589 29.3015 285.589C27.9168 285.589 26.5225 285.963 25.1168 286.71C23.7092 287.46 22.7047 288.314 22.1034 289.272V315.021H13.5977V265.801L22.1034 263.792V281.437C24.2686 279.474 27.2478 278.491 31.0436 278.491C35.5305 278.491 39.0128 279.734 41.4897 282.224C43.9676 284.713 45.2074 288.279 45.2074 292.922V315.021H36.8027Z" fill="black"/>
<path d="M73.4 298.146C71.9714 297.854 70.9002 297.711 70.1855 297.711C63.5782 297.711 60.2741 299.876 60.2741 304.206C60.2741 307.42 62.1382 309.028 65.8664 309.028C70.8879 309.028 73.4 306.516 73.4 301.494V298.146ZM74.2044 311.439C73.4429 312.688 72.1211 313.71 70.235 314.502C68.349 315.294 66.3791 315.69 64.3254 315.69C60.4647 315.69 57.4283 314.727 55.2183 312.794C53.0082 310.864 51.9027 308.122 51.9027 304.573C51.9027 300.421 53.4609 297.176 56.5744 294.831C59.688 292.487 64.1128 291.316 69.851 291.316C70.8316 291.316 71.9943 291.482 73.3314 291.818C73.3314 287.599 70.6658 285.488 65.3298 285.488C62.1839 285.488 59.5488 286.013 57.4283 287.062L55.6195 280.568C58.4995 279.183 61.9266 278.492 65.8988 278.492C71.3682 278.492 75.3747 279.735 77.9192 282.224C80.4657 284.713 81.737 289.43 81.737 296.372V304.039C81.737 308.817 82.6958 311.819 84.6161 313.045C83.9252 314.252 83.1532 314.993 82.3069 315.272C81.4578 315.551 80.4857 315.69 79.3936 315.69C78.187 315.69 77.1054 315.244 76.1466 314.351C75.1869 313.459 74.5379 312.487 74.2044 311.439Z" fill="black"/>
<path d="M126.002 315.691H122.956L113.111 293.658L103.301 315.691H100.22L86.6931 279.159H95.499L102.699 300.556L111.471 279.159H114.484L123.559 300.691L131.326 279.159H139.564L126.002 315.691Z" fill="black"/>
<path d="M167.454 315.021L156.909 298.782L152.89 303.034V315.021H144.518V265.801L152.89 263.792V292.922L164.845 279.16H174.921L162.8 292.756L177.4 315.021H167.454Z" fill="black"/>
<path d="M179.879 312.711L182.859 306.046C185.359 308.033 188.184 309.028 191.33 309.028C194.589 309.028 196.218 307.867 196.218 305.546C196.218 304.183 195.728 303.069 194.745 302.196C193.765 301.327 191.853 300.299 189.019 299.117C182.836 296.55 179.746 292.956 179.746 288.334C179.746 285.233 180.926 282.815 183.293 281.086C185.66 279.356 188.686 278.492 192.367 278.492C196.096 278.492 199.601 279.328 202.882 281.002L200.471 287.498C198.64 285.936 196.096 285.154 192.838 285.154C189.913 285.154 188.45 286.315 188.45 288.636C188.45 289.551 188.93 290.379 189.89 291.113C190.848 291.851 192.904 292.838 196.052 294.078C199.2 295.316 201.464 296.816 202.848 298.58C204.233 300.344 204.923 302.475 204.923 304.975C204.923 308.303 203.691 310.919 201.224 312.827C198.758 314.737 195.404 315.691 191.164 315.691C188.772 315.691 186.859 315.495 185.42 315.104C183.98 314.715 182.132 313.916 179.879 312.711Z" fill="black"/>
<path d="M218.317 293.358H235.93C235.35 288.111 232.447 285.489 227.224 285.489C222.446 285.489 219.478 288.111 218.317 293.358ZM243.631 299.653H218.015C218.171 302.51 219.154 304.731 220.963 306.316C222.771 307.9 225.204 308.692 228.263 308.692C232.078 308.692 234.982 307.699 236.967 305.712L240.214 312.108C237.269 314.497 232.871 315.69 227.023 315.69C221.554 315.69 217.229 314.089 214.048 310.887C210.866 307.682 209.277 303.213 209.277 297.476C209.277 291.828 211.024 287.253 214.516 283.748C218.01 280.244 222.202 278.492 227.09 278.492C232.291 278.492 236.464 280.043 239.612 283.145C242.76 286.248 244.334 290.199 244.334 294.999C244.334 296.025 244.099 297.577 243.631 299.653Z" fill="black"/>
<path d="M257.728 293.358H275.341C274.762 288.111 271.859 285.489 266.635 285.489C261.857 285.489 258.889 288.111 257.728 293.358ZM283.042 299.653H257.426C257.582 302.51 258.565 304.731 260.374 306.316C262.183 307.9 264.616 308.692 267.674 308.692C271.489 308.692 274.393 307.699 276.378 305.712L279.625 312.108C276.68 314.497 272.282 315.69 266.434 315.69C260.965 315.69 256.64 314.089 253.46 310.887C250.278 307.682 248.688 303.213 248.688 297.476C248.688 291.828 250.435 287.253 253.928 283.748C257.421 280.244 261.613 278.492 266.501 278.492C271.701 278.492 275.876 280.043 279.023 283.145C282.171 286.248 283.745 290.199 283.745 294.999C283.745 296.025 283.51 297.577 283.042 299.653Z" fill="black"/>
<path d="M74.6665 377.4C73.7504 377.4 72.9819 377.687 72.3793 378.252C71.7457 378.85 71.425 379.641 71.425 380.606C71.425 381.602 71.7431 382.373 72.3727 382.899C73.0161 383.49 73.7853 383.785 74.6665 383.785C75.5272 383.785 76.2879 383.49 76.9254 382.905C77.5885 382.347 77.9079 381.597 77.9079 380.606C77.9079 379.642 77.5866 378.85 76.9524 378.252C76.3484 377.687 75.5799 377.4 74.6665 377.4Z" fill="black"/>
<path d="M67.1928 377.4C66.2781 377.4 65.5095 377.687 64.9069 378.252C64.2727 378.85 63.9513 379.642 63.9513 380.606C63.9513 381.602 64.2707 382.373 64.9003 382.899C65.5431 383.49 66.313 383.785 67.1928 383.785C68.0549 383.785 68.8155 383.49 69.453 382.905C70.1149 382.347 70.4343 381.597 70.4343 380.606C70.4343 379.642 70.1135 378.85 69.4787 378.252C68.8761 377.687 68.1075 377.4 67.1928 377.4Z" fill="black"/>
<path d="M162.716 344.607C161.94 344.159 160.099 343.41 157.243 342.383C156.766 342.237 155.813 341.896 154.422 341.371C152 340.482 149.849 339.598 148.031 338.745L147.982 338.722L147.954 338.676C147.624 338.142 147.675 337.579 148.105 337.05C148.337 336.759 148.756 336.433 149.382 336.053L160.194 329.378L158.61 322.755L144.835 331.307C142.843 332.567 141.608 334.156 141.166 336.03C140.918 337.102 141.017 338.347 141.462 339.729C141.818 340.794 142.394 341.972 143.174 343.232C143.648 343.534 144.696 344.037 146.289 344.726C147.351 345.171 149.072 345.85 151.401 346.743C152.818 347.28 154.624 347.987 156.77 348.846C158.537 349.49 159.769 350.206 160.425 350.972C161.288 351.987 161.399 353.299 160.755 354.869L160.709 354.982H131.218C130.578 354.982 130.121 354.637 129.898 353.986C129.78 353.635 129.723 353.117 129.723 352.399V341.076L123.432 343.297V349.86C123.432 352.082 123.144 353.588 122.553 354.466C121.959 355.389 121.011 355.857 119.731 355.857C119.681 355.857 119.63 355.857 119.58 355.855C118.612 355.855 117.55 355.544 116.432 354.932L116.309 354.865L116.346 354.728C116.686 353.454 116.859 351.925 116.859 350.186V341.075L110.54 343.297V349.86C110.54 352.044 110.262 353.549 109.691 354.46C109.089 355.311 108.198 355.786 107.035 355.881C106.239 355.972 105.244 355.89 104.08 355.633L103.939 355.601V341.076L97.6745 343.297V353.082C97.554 354.348 97.0153 354.982 96.0709 354.982H75.8852L73.4479 361.449H80.3398L80.2206 361.704C78.9469 364.432 76.9126 366.273 74.1749 367.178C71.6974 367.987 69.1988 367.895 66.7423 366.9C64.2253 365.885 62.4972 364.208 61.6062 361.911C60.9766 360.212 60.8271 358.316 61.1577 356.275C61.4409 354.563 61.9875 352.853 62.7837 351.19L57.5165 349.293C55.8694 352.928 55.1233 356.514 55.3011 359.954C55.5158 363.964 56.908 367.26 59.4362 369.748C60.9074 371.216 62.7732 372.369 64.9833 373.175C66.8536 373.856 68.9512 374.201 71.2166 374.201C75.0231 374.201 78.4016 372.975 81.2571 370.558C84.006 368.262 85.846 365.244 86.7265 361.586L86.7595 361.449H96.0992C96.8651 361.449 97.5356 361.395 98.0901 361.289C98.4608 361.218 99.0845 361.001 99.9439 360.643L100.019 360.613L100.091 360.648C101.192 361.179 102.244 361.449 103.216 361.449H107.102C109.459 361.449 111.687 360.645 113.725 359.056L113.826 358.978L113.933 359.047C116.12 360.442 118.344 361.149 120.543 361.149C122.674 361.149 124.487 360.752 125.932 359.969L126.029 359.917L126.12 359.979C126.937 360.547 127.738 360.942 128.501 361.156C129.213 361.351 130.127 361.449 131.218 361.449H164.348C166.204 358.402 167.162 355.054 167.197 351.496C167.145 350.463 166.912 349.492 166.503 348.624C165.703 346.957 164.428 345.605 162.716 344.607Z" fill="black"/>
<path d="M235.552 354.825L235.532 354.982H229.491L229.502 354.79C229.538 354.201 229.556 353.775 229.556 353.492V347.14H229.845C231.95 347.14 233.474 347.424 234.375 347.987C235.265 348.566 235.752 349.669 235.827 351.271C235.865 351.951 235.773 353.147 235.552 354.825ZM223.101 352.126C223.101 352.835 223.023 353.414 222.871 353.851C222.586 354.582 222.108 354.962 221.448 354.982C219.609 354.944 218.253 354.679 217.41 354.193C216.261 353.544 215.678 352.362 215.678 350.679C215.678 349.799 215.771 348.779 215.954 347.647L215.978 347.495H223.101V352.126ZM180.537 354.981V354.272C181.054 349.598 183.646 347.262 188.312 347.262C192.579 347.262 195.229 349.598 196.266 354.272L196.382 354.981H180.537ZM238.766 343.473C236.726 341.851 233.983 341.028 230.612 341.028H211.56C210.912 343.341 210.484 345.545 210.289 347.583C210.001 350.407 210.1 352.821 210.586 354.759L210.642 354.982H204.127C203.618 351.291 202.141 348.194 199.66 345.711C196.54 342.589 192.797 341.028 188.431 341.028C183.787 341.028 180.059 342.41 177.248 345.173C172.979 349.368 172.534 355.436 173.559 361.018C173.585 361.162 173.611 361.306 173.642 361.449H196.324C195.964 363.248 195.167 364.712 193.903 365.816C192.288 367.228 190.115 367.934 187.384 367.934C183.977 367.934 181.383 367.049 179.61 365.279L176.71 370.977C179.341 373.105 183.268 374.168 188.491 374.168C193.375 374.168 197.238 372.742 200.078 369.889C202.232 367.724 203.565 364.909 204.086 361.449H240.666C241.096 360.147 241.44 358.437 241.683 356.364C241.864 354.616 241.955 352.757 241.955 350.843C241.955 347.674 240.882 345.195 238.766 343.473Z" fill="black"/>
</g>
</g>
<defs>
<clipPath id="clip0_310_709">
<rect width="284" height="391.691" fill="white"/>
</clipPath>
</defs>
</svg>
