<svg width="600" height="600" viewBox="0 0 600 600" fill="none" xmlns="http://www.w3.org/2000/svg">
<path d="M294.133 284.897L291.466 284.269L294.888 287.705L294.133 284.897Z" fill="black"/>
<path d="M302.726 285.033L302.099 287.697L305.535 284.276L302.726 285.033Z" fill="black"/>
<path d="M201.806 463.037C201.806 463.89 201.888 464.599 202.048 465.162C202.211 465.725 202.444 466.133 202.744 466.392C203.049 466.65 203.345 466.825 203.641 466.919C203.935 467.013 204.283 467.061 204.687 467.061C206.384 467.061 207.231 466.51 207.225 465.414V459.76C206.474 459.449 205.686 459.295 204.861 459.295C204.423 459.295 204.037 459.341 203.712 459.426C203.385 459.512 203.066 459.677 202.757 459.921C202.448 460.162 202.211 460.546 202.048 461.065C201.888 461.584 201.806 462.243 201.806 463.037ZM199.784 463.037C199.784 461.943 199.936 461.011 200.239 460.242C200.543 459.474 200.956 458.901 201.479 458.518C202.002 458.134 202.538 457.869 203.084 457.711C203.635 457.556 204.225 457.479 204.861 457.479C205.659 457.479 206.447 457.59 207.225 457.807V453.468H209.245V465.301C209.245 465.539 209.222 465.775 209.174 466.01C209.128 466.244 209.018 466.544 208.84 466.911C208.663 467.278 208.425 467.599 208.121 467.872C207.821 468.145 207.371 468.381 206.772 468.579C206.176 468.777 205.48 468.877 204.687 468.877C204.262 468.877 203.851 468.839 203.46 468.768C203.066 468.695 202.636 468.535 202.171 468.283C201.706 468.03 201.308 467.701 200.977 467.299C200.643 466.894 200.364 466.325 200.13 465.595C199.901 464.864 199.784 464.011 199.784 463.037Z" fill="black"/>
<path d="M214.301 457.652H216.326V468.703H214.301V457.652ZM214.239 453.804H216.388V455.943H214.239V453.804Z" fill="black"/>
<path d="M223.026 463.102C223.026 464.535 223.283 465.491 223.795 465.961C224.308 466.434 225.017 466.669 225.92 466.669C226.716 466.669 227.458 466.53 228.153 466.248V460.82C228.153 460.655 228.136 460.515 228.109 460.398C228.08 460.284 227.998 460.121 227.865 459.913C227.731 459.702 227.483 459.546 227.123 459.435C226.762 459.327 226.297 459.275 225.736 459.275C225.367 459.275 225.046 459.319 224.771 459.406C224.496 459.492 224.214 459.658 223.927 459.902C223.637 460.146 223.416 460.538 223.26 461.074C223.103 461.612 223.026 462.287 223.026 463.102ZM221.004 463.09C221.004 461.378 221.392 460.013 222.165 458.989C222.941 457.97 224.129 457.459 225.736 457.459C227.077 457.459 228.153 457.759 228.961 458.368C229.768 458.972 230.175 459.833 230.175 460.951V469.167C230.175 469.659 230.104 470.111 229.962 470.53C229.822 470.949 229.585 471.358 229.253 471.756C228.922 472.159 228.422 472.471 227.754 472.698C227.085 472.926 226.274 473.038 225.313 473.038C224.202 473.038 223.112 472.882 222.036 472.573V470.649C223.08 470.96 224.114 471.114 225.14 471.114C225.849 471.114 226.424 471.052 226.868 470.924C227.312 470.797 227.619 470.618 227.788 470.384C227.959 470.151 228.061 469.953 228.098 469.79C228.134 469.63 228.153 469.415 228.153 469.148V468.177C227.402 468.383 226.656 468.487 225.92 468.487C224.344 468.487 223.13 468.022 222.28 467.095C221.429 466.167 221.004 464.833 221.004 463.09Z" fill="black"/>
<path d="M235.21 457.652H237.234V468.703H235.21V457.652ZM235.145 453.804H237.294V455.943H235.145V453.804Z" fill="black"/>
<path d="M241.49 459.383V457.652H243.416V454.377H245.438V457.652H248.378V459.383H245.438V465.768C245.438 466.629 245.98 467.061 247.071 467.061H247.091C247.596 467.061 248.025 466.952 248.378 466.736V468.568C247.873 468.775 247.367 468.877 246.864 468.877H246.81C246.543 468.877 246.258 468.843 245.957 468.779C245.653 468.714 245.29 468.587 244.869 468.395C244.448 468.203 244.1 467.874 243.825 467.403C243.552 466.932 243.416 466.348 243.416 465.649V459.383H241.49Z" fill="black"/>
<path d="M254.226 465.189C254.226 466.436 255.11 467.059 256.88 467.059H256.911C258.581 467.059 259.415 466.461 259.415 465.264V463.48C258.884 463.394 258.244 463.346 257.495 463.34C257.201 463.34 256.891 463.367 256.567 463.419C256.244 463.475 255.896 463.559 255.521 463.671C255.146 463.788 254.837 463.978 254.593 464.243C254.349 464.507 254.226 464.822 254.226 465.189ZM252.204 465.21C252.204 464.118 252.665 463.265 253.588 462.65C254.514 462.035 255.786 461.728 257.408 461.728C258.098 461.728 258.769 461.772 259.415 461.858C259.374 460.928 259.119 460.263 258.654 459.858C258.189 459.454 257.431 459.252 256.374 459.252C255.415 459.252 254.393 459.435 253.313 459.804V458.074C254.358 457.678 255.473 457.48 256.653 457.48C258.194 457.48 259.384 457.878 260.222 458.674C261.06 459.471 261.479 460.615 261.479 462.106V465.298C261.479 465.535 261.458 465.771 261.41 466.006C261.364 466.24 261.25 466.54 261.073 466.907C260.895 467.276 260.656 467.595 260.351 467.87C260.049 468.143 259.592 468.379 258.984 468.579C258.377 468.777 257.674 468.877 256.88 468.877C256.065 468.877 255.35 468.773 254.737 468.566C254.124 468.36 253.661 468.12 253.351 467.845C253.042 467.572 252.794 467.245 252.611 466.869C252.427 466.494 252.312 466.184 252.271 465.935C252.225 465.692 252.204 465.45 252.204 465.21Z" fill="black"/>
<path d="M266.279 453.445H268.301V468.701H266.279V453.445Z" fill="black"/>
<path d="M283.661 468.703V458.561C285.137 457.825 286.666 457.458 288.25 457.458C289.449 457.458 290.433 457.735 291.204 458.292C292.595 457.735 293.948 457.458 295.257 457.458C296.654 457.458 297.742 457.821 298.524 458.55C299.305 459.278 299.695 460.295 299.695 461.6V468.703H297.675V461.459C297.675 460.825 297.517 460.314 297.208 459.922C296.897 459.534 296.291 459.34 295.388 459.34C294.412 459.34 293.424 459.545 292.419 459.955C292.592 460.424 292.678 460.95 292.678 461.536V468.703H290.656V461.479C290.656 460.833 290.485 460.32 290.141 459.945C289.799 459.57 289.117 459.382 288.1 459.382C287.312 459.382 286.507 459.495 285.684 459.718V468.703H283.661Z" fill="black"/>
<path d="M306.075 465.189C306.075 466.436 306.959 467.059 308.729 467.059H308.761C310.43 467.059 311.264 466.461 311.264 465.264V463.48C310.733 463.394 310.093 463.346 309.344 463.34C309.05 463.34 308.74 463.367 308.417 463.419C308.093 463.475 307.745 463.559 307.37 463.671C306.995 463.788 306.686 463.978 306.442 464.243C306.198 464.507 306.075 464.822 306.075 465.189ZM304.053 465.21C304.053 464.118 304.514 463.265 305.437 462.65C306.363 462.035 307.635 461.728 309.257 461.728C309.947 461.728 310.618 461.772 311.264 461.858C311.223 460.928 310.968 460.263 310.503 459.858C310.039 459.454 309.28 459.252 308.223 459.252C307.264 459.252 306.242 459.435 305.162 459.804V458.074C306.207 457.678 307.322 457.48 308.502 457.48C310.043 457.48 311.233 457.878 312.071 458.674C312.909 459.471 313.328 460.615 313.328 462.106V465.298C313.328 465.535 313.307 465.771 313.259 466.006C313.214 466.24 313.099 466.54 312.922 466.907C312.745 467.276 312.505 467.595 312.2 467.87C311.898 468.143 311.442 468.379 310.833 468.579C310.226 468.777 309.524 468.877 308.729 468.877C307.914 468.877 307.199 468.773 306.586 468.566C305.973 468.36 305.51 468.12 305.2 467.845C304.891 467.572 304.643 467.245 304.46 466.869C304.276 466.494 304.162 466.184 304.12 465.935C304.074 465.692 304.053 465.45 304.053 465.21Z" fill="black"/>
<path d="M317.924 468.703V458.584C319.769 457.848 321.562 457.479 323.307 457.479V459.34C322.208 459.355 321.089 459.509 319.947 459.803V468.703H317.924Z" fill="black"/>
<path d="M327.414 468.703V453.447H329.438V462.28L334.216 457.652H336.962L332.161 462.259L337.6 468.703H334.908L330.81 463.566L329.438 464.896V468.703H327.414Z" fill="black"/>
<path d="M342.559 462.508H348.237C348.206 462.139 348.144 461.789 348.048 461.453C347.95 461.117 347.802 460.777 347.604 460.431C347.406 460.085 347.12 459.81 346.745 459.604C346.37 459.399 345.921 459.295 345.402 459.295C344.472 459.295 343.791 459.535 343.355 460.016C342.919 460.494 342.652 461.326 342.559 462.508ZM340.526 463.308C340.526 459.424 342.152 457.479 345.402 457.479H345.425C346.903 457.479 348.081 457.961 348.965 458.926C349.849 459.894 350.291 461.186 350.291 462.808C350.291 463.333 350.268 463.84 350.226 464.324H342.592C342.838 466.219 343.876 467.167 345.707 467.167C347.199 467.167 348.471 466.892 349.524 466.335V468.178C348.383 468.658 347.097 468.895 345.663 468.895H345.598C344.948 468.895 344.349 468.814 343.803 468.654C343.255 468.491 342.721 468.222 342.204 467.847C341.685 467.472 341.276 466.894 340.976 466.119C340.678 465.343 340.526 464.405 340.526 463.308Z" fill="black"/>
<path d="M353.316 459.383V457.652H355.243V454.377H357.265V457.652H360.204V459.383H357.265V465.768C357.265 466.629 357.807 467.061 358.897 467.061H358.918C359.423 467.061 359.852 466.952 360.204 466.736V468.568C359.7 468.775 359.193 468.877 358.691 468.877H358.637C358.37 468.877 358.084 468.843 357.784 468.779C357.48 468.714 357.117 468.587 356.696 468.395C356.275 468.203 355.926 467.874 355.651 467.403C355.378 466.932 355.243 466.348 355.243 465.649V459.383H353.316Z" fill="black"/>
<path d="M364.708 457.652H366.733V468.703H364.708V457.652ZM364.646 453.804H366.795V455.943H364.646V453.804Z" fill="black"/>
<path d="M372.114 468.703V458.59C373.646 457.835 375.216 457.458 376.823 457.458C378.224 457.458 379.319 457.821 380.113 458.55C380.907 459.278 381.303 460.287 381.303 461.577V468.703H379.239V461.421C379.239 460.768 379.073 460.256 378.741 459.882C378.41 459.505 377.74 459.317 376.738 459.317C375.833 459.317 374.966 459.453 374.136 459.718V468.703H372.114Z" fill="black"/>
<path d="M387.996 463.102C387.996 464.535 388.252 465.491 388.765 465.961C389.278 466.434 389.987 466.669 390.889 466.669C391.686 466.669 392.428 466.53 393.122 466.248V460.82C393.122 460.655 393.106 460.515 393.078 460.398C393.049 460.284 392.968 460.121 392.834 459.913C392.701 459.702 392.453 459.546 392.092 459.435C391.732 459.327 391.267 459.275 390.706 459.275C390.337 459.275 390.016 459.319 389.741 459.406C389.466 459.492 389.184 459.658 388.896 459.902C388.607 460.146 388.386 460.538 388.229 461.074C388.073 461.612 387.996 462.287 387.996 463.102ZM385.974 463.09C385.974 461.378 386.361 460.013 387.135 458.989C387.91 457.97 389.099 457.459 390.706 457.459C392.046 457.459 393.122 457.759 393.931 458.368C394.738 458.972 395.144 459.833 395.144 460.951V469.167C395.144 469.659 395.074 470.111 394.932 470.53C394.792 470.949 394.554 471.358 394.223 471.756C393.891 472.159 393.391 472.471 392.724 472.698C392.055 472.926 391.244 473.038 390.283 473.038C389.172 473.038 388.081 472.882 387.006 472.573V470.649C388.05 470.96 389.084 471.114 390.11 471.114C390.819 471.114 391.394 471.052 391.838 470.924C392.282 470.797 392.588 470.618 392.757 470.384C392.928 470.151 393.03 469.953 393.068 469.79C393.103 469.63 393.122 469.415 393.122 469.148V468.177C392.372 468.383 391.625 468.487 390.889 468.487C389.313 468.487 388.1 468.022 387.249 467.095C386.399 466.167 385.974 464.833 385.974 463.09Z" fill="black"/>
<path d="M380.931 170.997C386.602 156.33 392.27 141.666 397.941 127C392.848 132.877 387.75 138.756 382.655 144.633C369.788 159.481 356.921 174.326 344.058 189.172C338.411 195.682 332.767 202.195 327.122 208.708C323.127 213.317 316.938 218.373 316.569 224.664C315.72 239.21 313.133 253.611 312.018 268.134C311.601 271.953 311.113 275.772 310.767 279.6C310.202 285.865 305.59 288.779 301.544 293.147L298.5 303.491L295.458 293.147C291.41 288.779 286.798 285.865 286.235 279.6C285.889 275.772 285.401 271.953 284.985 268.134C283.867 253.611 281.282 239.21 280.431 224.664C280.065 218.373 273.873 213.317 269.878 208.708C264.233 202.195 258.589 195.682 252.946 189.172L214.344 144.633C209.249 138.756 204.154 132.877 199.059 127C204.73 141.666 210.4 156.33 216.069 170.997C220.159 181.573 226.542 191.11 234.763 198.924L269.937 232.357L225.204 194.621C228.665 203.575 232.125 212.527 235.586 221.479C237.298 225.903 240.166 229.785 243.896 232.718L272.378 255.129L239.974 232.828L248.309 254.387C249.389 257.178 251.345 259.547 253.884 261.129L277.125 275.637L251.178 261.811C253.557 267.961 255.933 274.109 258.31 280.257C259.2 282.56 260.914 284.449 263.12 285.558L279.583 293.843L260.489 285.89C262.453 290.972 264.418 296.053 266.382 301.137C268.859 307.542 278.138 323.536 274.826 329.94C269.034 341.14 263.293 352.364 257.549 363.59C256.521 365.6 257.981 367.987 260.238 367.987C260.977 367.987 261.689 367.716 262.242 367.228C267.235 362.809 272.228 358.389 277.223 353.967C280.834 350.769 284.445 347.573 288.053 344.377C291.933 340.944 293.761 340.675 298.5 340.493C303.239 340.675 305.067 340.944 308.947 344.377C312.557 347.573 316.168 350.769 319.779 353.967C324.774 358.389 329.765 362.809 334.76 367.228C335.313 367.716 336.023 367.987 336.761 367.987C339.019 367.987 340.481 365.6 339.453 363.59C333.709 352.364 327.968 341.14 322.174 329.94C318.864 323.536 328.143 307.542 330.618 301.137C332.584 296.053 334.547 290.972 336.513 285.89L317.419 293.843L333.882 285.558C336.086 284.449 337.802 282.56 338.69 280.257C341.069 274.109 343.445 267.961 345.822 261.811L319.877 275.637L343.118 261.129C345.657 259.547 347.613 257.178 348.693 254.387L357.025 232.828L324.624 255.129L353.106 232.718C356.833 229.787 359.702 225.905 361.416 221.481C364.876 212.527 368.337 203.575 371.798 194.621L327.063 232.357L362.237 198.924C370.459 191.112 376.843 181.573 380.931 170.997Z" fill="black"/>
<path d="M253.525 372.894C253.688 372.894 253.844 372.913 254.002 372.927L256.398 368.935C256.606 368.587 256.982 368.374 257.386 368.374C258.287 368.374 258.839 369.36 258.368 370.13L256.212 373.647C256.994 374.124 257.642 374.802 258.089 375.608C256.854 374.916 255.264 374.499 253.525 374.499C251.786 374.499 250.196 374.916 248.961 375.608C249.856 373.997 251.553 372.894 253.525 372.894Z" fill="black"/>
<path d="M343.169 372.894C343.007 372.894 342.85 372.913 342.692 372.927L340.297 368.935C340.086 368.587 339.713 368.374 339.306 368.374C338.408 368.374 337.855 369.36 338.327 370.13L340.482 373.647C339.7 374.124 339.052 374.802 338.606 375.608C339.838 374.916 341.429 374.499 343.169 374.499C344.908 374.499 346.499 374.916 347.731 375.608C346.839 373.997 345.14 372.894 343.169 372.894Z" fill="black"/>
<path d="M180.481 444.026V420.71C180.481 418.379 179.749 416.507 178.29 415.094C176.831 413.682 174.921 412.974 172.57 412.974C171.108 412.974 169.636 413.37 168.152 414.16C166.67 414.948 165.609 415.848 164.973 416.862V444.026H156V392.099L164.973 389.979V408.596C167.258 406.523 170.401 405.487 174.404 405.487C179.139 405.487 182.812 406.801 185.426 409.425C188.039 412.052 189.348 415.813 189.348 420.71V444.026H180.481Z" fill="black"/>
<path d="M219.091 426.222C217.582 425.918 216.452 425.761 215.699 425.761C208.728 425.761 205.242 428.048 205.242 432.616C205.242 436.006 207.21 437.703 211.142 437.703C216.441 437.703 219.091 435.053 219.091 429.754V426.222ZM219.94 440.246C219.137 441.564 217.742 442.644 215.753 443.478C213.762 444.314 211.684 444.733 209.518 444.733C205.444 444.733 202.24 443.715 199.909 441.676C197.578 439.642 196.413 436.748 196.413 433.004C196.413 428.624 198.054 425.199 201.339 422.724C204.625 420.254 209.293 419.015 215.347 419.015C216.383 419.015 217.607 419.192 219.02 419.547C219.02 415.094 216.206 412.869 210.577 412.869C207.256 412.869 204.479 413.422 202.24 414.531L200.332 407.676C203.37 406.217 206.985 405.487 211.177 405.487C216.948 405.487 221.176 406.801 223.859 409.425C226.544 412.052 227.887 417.026 227.887 424.35V432.439C227.887 437.478 228.9 440.647 230.924 441.941C230.194 443.213 229.381 443.995 228.487 444.291C227.593 444.587 226.567 444.733 225.414 444.733C224.142 444.733 223 444.259 221.987 443.319C220.974 442.377 220.292 441.353 219.94 440.246Z" fill="black"/>
<path d="M274.585 444.733H271.371L260.987 421.49L250.636 444.733H247.385L233.115 406.194H242.405L250 428.765L259.254 406.194H262.435L272.007 428.907L280.202 406.194H288.893L274.585 444.733Z" fill="black"/>
<path d="M318.317 444.026L307.189 426.893L302.951 431.38V444.026H294.12V392.099L302.951 389.979V420.71L315.563 406.194H326.193L313.408 420.533L328.808 444.026H318.317Z" fill="black"/>
<path d="M331.424 441.589L334.568 434.559C337.203 436.657 340.184 437.703 343.505 437.703C346.941 437.703 348.661 436.479 348.661 434.03C348.661 432.593 348.144 431.416 347.106 430.496C346.07 429.577 344.058 428.495 341.066 427.246C334.543 424.538 331.283 420.748 331.283 415.872C331.283 412.601 332.529 410.049 335.027 408.225C337.524 406.398 340.714 405.487 344.598 405.487C348.532 405.487 352.228 406.369 355.693 408.135L353.147 414.99C351.217 413.341 348.532 412.517 345.096 412.517C342.009 412.517 340.466 413.741 340.466 416.188C340.466 417.156 340.972 418.025 341.984 418.803C342.999 419.58 345.165 420.623 348.486 421.93C351.805 423.237 354.196 424.821 355.655 426.681C357.117 428.541 357.846 430.79 357.846 433.429C357.846 436.938 356.546 439.698 353.944 441.712C351.34 443.724 347.8 444.733 343.328 444.733C340.808 444.733 338.788 444.524 337.27 444.114C335.75 443.703 333.803 442.859 331.424 441.589Z" fill="black"/>
<path d="M371.975 421.171H390.557C389.944 415.638 386.881 412.87 381.373 412.87C376.332 412.87 373.199 415.638 371.975 421.171ZM398.683 427.813H371.658C371.821 430.826 372.859 433.171 374.767 434.843C376.674 436.513 379.239 437.351 382.466 437.351C386.493 437.351 389.556 436.302 391.651 434.205L395.076 440.951C391.97 443.472 387.329 444.733 381.161 444.733C375.39 444.733 370.827 443.042 367.472 439.663C364.116 436.283 362.437 431.568 362.437 425.516C362.437 419.56 364.28 414.729 367.966 411.033C371.652 407.335 376.074 405.488 381.229 405.488C386.717 405.488 391.122 407.124 394.441 410.397C397.762 413.67 399.423 417.838 399.423 422.901C399.423 423.986 399.175 425.622 398.683 427.813Z" fill="black"/>
<path d="M413.554 421.171H432.134C431.521 415.638 428.46 412.87 422.95 412.87C417.909 412.87 414.778 415.638 413.554 421.171ZM440.26 427.813H413.235C413.4 430.826 414.436 433.171 416.344 434.843C418.251 436.513 420.815 437.351 424.045 437.351C428.07 437.351 431.133 436.302 433.23 434.205L436.655 440.951C433.547 443.472 428.906 444.733 422.738 444.733C416.967 444.733 412.406 443.042 409.049 439.663C405.693 436.283 404.016 431.568 404.016 425.516C404.016 419.56 405.859 414.729 409.543 411.033C413.229 407.335 417.651 405.488 422.806 405.488C428.295 405.488 432.698 407.124 436.017 410.397C439.338 413.67 441 417.838 441 422.901C441 423.986 440.754 425.622 440.26 427.813Z" fill="black"/>
</svg>
